<?xml version="1.0" encoding="UTF-8"?>
<svg id="Layer_2" data-name="Layer 2" xmlns="http://www.w3.org/2000/svg" viewBox="0 0 384 384">
  <defs>
    <style>
      .cls-1 {
        fill: #000;
      }

      .cls-1, .cls-2 {
        stroke-width: 0px;
      }

      .cls-2 {
        fill: #fff;
      }
    </style>
  </defs>
  <g id="Layer_1-2" data-name="Layer 1">
    <g>
      <path shape-rendering="auto" class="cls-2" d="M384,384H0V0h384v384ZM166.99,182.97c0-9.75-.02-18.87,0-28,.02-7.46-3.08-13.12-9.92-16.21-7.03-3.17-13.36-1.49-18.94,3.64-30.42,27.99-60.86,55.96-91.28,83.95-6.35,5.85-6.27,10.74.18,16.67,14.99,13.78,29.97,27.56,44.95,41.34,15.26,14.03,30.54,28.04,45.76,42.12,4.05,3.74,8.57,6.08,14.18,5.39,9.07-1.12,14.96-7.84,15.03-17.11.07-9.34.02-18.69.02-28.45h4.76c33.32,0,66.64,0,99.96,0,1.25,0,2.5.05,3.74-.03,5.72-.39,9.34-4.01,9.26-9.22-.08-5.2-3.81-8.72-9.62-8.72-38.81-.04-77.62-.04-116.43,0-6.14,0-9.58,3.64-9.62,9.94-.06,9.88-.02,19.75-.02,29.63,0,1.18,0,2.36,0,4.44-28.6-26.3-56.48-51.94-84.55-77.74,28.19-25.92,56.05-51.53,84.55-77.73,0,11.66,0,22.27,0,32.87,0,7.91,3.27,11.22,11.06,11.23,17.85.01,35.69,0,53.54,0h4.23c0,9.59.04,18.7-.01,27.8-.05,7.63,3.08,13.36,10.1,16.47,7.07,3.13,13.36,1.28,18.92-3.83,30.24-27.82,60.49-55.62,90.73-83.44,6.91-6.36,6.81-11.01-.19-17.45-17.66-16.22-35.3-32.46-52.95-48.69-12.78-11.75-25.52-23.54-38.37-35.21-5.4-4.91-11.74-6.11-18.4-3.07-6.65,3.03-9.82,8.57-9.82,15.9,0,5.88,0,11.75,0,17.63,0,3.45,0,6.91,0,10.57h-5.01c-24.09,0-48.17,0-72.26,0-14.48,0-28.95,0-43.43,0-1,0-2-.02-2.99.01-6.1.22-10.18,4.02-10.01,9.31.17,5.22,4.1,8.66,10.15,8.67,43.68.03,87.36.03,131.03,0,7.18,0,10.47-3.36,10.49-10.6.03-9.88,0-19.75.02-29.63,0-1,.15-2.01.27-3.56,28.35,26.08,56.18,51.67,84.28,77.52-28.15,25.89-56.01,51.51-84.56,77.76,0-11.71.01-22.41,0-33.11-.01-7.67-3.31-11.02-10.88-11.03-17.85-.02-35.69,0-53.54,0h-4.41Z"/>
      <path shape-rendering="auto" class="cls-1" d="M166.99,182.97h4.41c17.85,0,35.69-.01,53.54,0,7.57,0,10.87,3.35,10.88,11.03.02,10.7,0,21.41,0,33.11,28.55-26.26,56.41-51.88,84.56-77.76-28.1-25.84-55.93-51.44-84.28-77.52-.12,1.55-.27,2.56-.27,3.56-.02,9.88.01,19.75-.02,29.63-.02,7.24-3.3,10.6-10.49,10.6-43.68.02-87.36.02-131.03,0-6.05,0-9.98-3.45-10.15-8.67-.17-5.29,3.91-9.09,10.01-9.31,1-.04,2-.01,2.99-.01,14.48,0,28.95,0,43.43,0,24.09,0,48.17,0,72.26,0h5.01c0-3.66,0-7.12,0-10.57,0-5.88,0-11.75,0-17.63,0-7.33,3.17-12.87,9.82-15.9,6.66-3.03,13-1.84,18.4,3.07,12.84,11.68,25.59,23.46,38.37,35.21,17.65,16.23,35.29,32.47,52.95,48.69,7,6.43,7.1,11.08.19,17.45-30.23,27.82-60.49,55.62-90.73,83.44-5.56,5.11-11.84,6.96-18.92,3.83-7.02-3.1-10.15-8.84-10.1-16.47.06-9.1.01-18.21.01-27.8h-4.23c-17.85,0-35.69,0-53.54,0-7.79,0-11.05-3.32-11.06-11.23-.01-10.61,0-21.21,0-32.87-28.5,26.2-56.35,51.81-84.55,77.73,28.07,25.81,55.95,51.45,84.55,77.74,0-2.08,0-3.26,0-4.44,0-9.88-.04-19.75.02-29.63.04-6.3,3.48-9.93,9.62-9.94,38.81-.05,77.62-.04,116.43,0,5.81,0,9.54,3.52,9.62,8.72.08,5.21-3.54,8.84-9.26,9.22-1.24.08-2.49.03-3.74.03-33.32,0-66.64,0-99.96,0h-4.76c0,9.77.05,19.11-.02,28.45-.07,9.27-5.96,16-15.03,17.11-5.61.69-10.13-1.64-14.18-5.39-15.22-14.08-30.5-28.08-45.76-42.12-14.98-13.78-29.96-27.56-44.95-41.34-6.45-5.93-6.54-10.82-.18-16.67,30.42-27.99,60.86-55.96,91.28-83.95,5.58-5.13,11.91-6.81,18.94-3.64,6.84,3.09,9.94,8.75,9.92,16.21-.03,9.12,0,18.25,0,28Z"/>
    </g>
  </g>
</svg>