<?xml version="1.0" encoding="UTF-8"?>
<svg id="Layer_2" data-name="Layer 2" xmlns="http://www.w3.org/2000/svg" viewBox="0 0 498.16 498.16">
  <defs>
    <style>
      .cls-1 {
        fill: #000;
      }

      .cls-1, .cls-2 {
        stroke-width: 0px;
      }

      .cls-2 {
        fill: #fff;
      }
    </style>
  </defs>
  <g id="Layer_1-2" data-name="Layer 1">
    <g>
      <path class="cls-2" d="M476.8,498.16h-159.26c3.71-2.26,5.7-5.34,5.66-9.91-.14-14.56.09-29.12-.11-43.68-.18-13.21-4.28-25.08-13.05-35.16-25.98-29.87-73.62-35.4-107.92-12.55-18,11.99-27.65,28.41-27.41,50.43.14,12.78-.38,25.56-.6,38.34-.16,9.41,2.17,11.8,11.59,11.8,39.8,0,79.6,0,119.41.03,1.88,0,3.75.45,5.63.7h-159.26c4.22-2.44,5.65-6.13,5.6-10.93-.17-13.75-.05-27.5-.06-41.26-.02-18.12-7.15-32.88-21.06-44.45-29.3-24.35-74.35-25.01-104.36-1.56-15.11,11.81-23.05,27.02-22.96,46.41.06,13.1-.43,26.21-.65,39.31-.15,9.36,2.21,11.74,11.65,11.74,39.8,0,79.6,0,119.41.03,1.88,0,3.76.45,5.64.7H0C0,332.11,0,166.05,0,0c166.05,0,332.11,0,498.16,0,0,166.05,0,332.11,0,498.16-4.86,0-9.71,0-14.57,0,4.26-2.38,5.79-5.99,5.72-10.84-.19-13.91,0-27.83-.08-41.74-.1-17.73-7.06-32.26-20.61-43.67-25.53-21.48-61.7-25.37-92.37-9.66-23.13,11.84-36.13,30.05-35.48,56.93.29,12.12-.3,24.26-.51,36.39-.17,9.46,2.12,11.85,11.52,11.85,39.8,0,79.6,0,119.39.03,1.88,0,3.75.45,5.63.7ZM154.43,210.9c2.07,1.02,3.49,1.66,4.85,2.41,11.07,6.03,22.11,12.12,33.21,18.1,12.82,6.9,28.66,2.88,36-9.61,2.18-3.72,4.55-4.47,8.43-4.47,72.34.1,144.68.08,217.03.07,9.44,0,11.88-2.39,11.88-11.7,0-64.41,0-128.82,0-193.24,0-9.13-2.39-11.49-11.52-11.49-92.73,0-185.47,0-278.2,0-9.64,0-11.85,2.26-11.85,12.12,0,38.19,0,76.39,0,114.58,0,1.7,0,3.41,0,6.41-1.58-1.99-2.33-2.96-3.1-3.9-8.06-9.8-18.1-16.5-31.02-16.77-19.08-.4-38.2-.5-57.26.31-12.99.56-23.92,6.4-31.53,17.49-8.34,12.16-14.2,25.41-16.94,39.89-4.04,21.33-2.34,42.94-1.75,64.4.34,12.46,13.03,21.29,25.49,19.68,1.19-.15,2.39-.29,3.97-.49,0,3.34-.02,6.24,0,9.14.06,8.2,2.55,10.73,10.73,10.74,17.32.02,34.63,0,51.95,0,10.03,0,20.07.07,30.1-.03,6.36-.06,9.35-3,9.48-9.1.09-4.04.04-8.09.04-12.14,0-13.88,0-27.75,0-42.4ZM146.79,59.25c.02-24.97-19.98-45.14-44.81-45.18-24.79-.04-44.89,20.13-44.92,45.08-.03,25,19.91,45.08,44.82,45.13,24.85.05,44.89-20.04,44.91-45.03ZM123.62,328.99c.12-22.75-18.04-41.35-40.56-41.55-23.06-.21-41.81,18.36-41.79,41.38.03,22.71,18.28,41.14,40.88,41.27,22.94.14,41.35-18.11,41.47-41.1ZM373.57,328.93c.09,22.99,18.48,41.27,41.4,41.16,22.6-.11,40.86-18.49,40.94-41.21.08-22.82-18.46-41.46-41.23-41.44-22.83.01-41.2,18.55-41.11,41.49ZM289.75,328.93c.09-22.71-18.13-41.31-40.65-41.49-22.92-.18-41.39,17.98-41.66,40.96-.27,22.88,18.08,41.59,40.89,41.69,22.91.11,41.33-18.19,41.42-41.16Z"/>
      <path class="cls-1" d="M310.74,498.16c-1.88-.24-3.75-.7-5.63-.7-39.8-.04-79.6-.03-119.41-.03-9.42,0-11.75-2.39-11.59-11.8.21-12.78.74-25.56.6-38.34-.24-22.02,9.41-38.44,27.41-50.43,34.3-22.86,81.94-17.32,107.92,12.55,8.77,10.08,12.87,21.96,13.05,35.16.2,14.56-.03,29.12.11,43.68.04,4.57-1.95,7.65-5.66,9.91h-6.8ZM306.93,481.28c0-12.76.09-25.19-.03-37.6-.09-9.99-3.73-18.7-10.81-25.7-22.08-21.85-57.69-26.24-85.96-7.11-9.3,6.29-16.97,14.4-18.2,25.76-1.59,14.69-1.42,29.58-2.02,44.65h117.02Z"/>
      <path class="cls-1" d="M144.69,498.16c-1.88-.24-3.76-.7-5.64-.7-39.8-.04-79.6-.03-119.41-.03-9.44,0-11.8-2.38-11.65-11.74.21-13.1.71-26.21.65-39.31-.09-19.39,7.85-34.6,22.96-46.41,30.01-23.45,75.06-22.79,104.36,1.56,13.91,11.56,21.03,26.32,21.06,44.45.02,13.75-.1,27.51.06,41.26.06,4.8-1.38,8.49-5.6,10.93h-6.8ZM140.84,481.27c0-12.57.06-24.82-.02-37.08-.07-10.35-3.75-19.35-11.16-26.55-26.43-25.68-69.11-25.1-94.27.91-4.58,4.74-8.62,11.69-9.42,18.06-1.85,14.64-1.57,29.56-2.16,44.65h117.03Z"/>
      <path class="cls-1" d="M476.8,498.16c-1.88-.24-3.75-.7-5.63-.7-39.8-.04-79.6-.03-119.39-.03-9.41,0-11.69-2.4-11.52-11.85.22-12.13.8-24.27.51-36.39-.64-26.89,12.36-45.09,35.48-56.93,30.67-15.71,66.84-11.82,92.37,9.66,13.56,11.41,20.52,25.94,20.61,43.67.08,13.91-.1,27.83.08,41.74.06,4.85-1.46,8.47-5.72,10.84h-6.8ZM473.01,481.33c0-12.93.09-25.37-.03-37.8-.09-9.82-3.64-18.41-10.56-25.31-23.92-23.85-62.43-26.41-90.17-4.35-9.92,7.89-15.21,18.22-15.27,31.08-.03,6.63-.32,13.26-.41,19.89-.07,5.43-.01,10.87-.01,16.49h116.45Z"/>
      <path class="cls-1" d="M154.43,210.9c0,14.65,0,28.53,0,42.4,0,4.05.05,8.09-.04,12.14-.13,6.1-3.12,9.04-9.48,9.1-10.03.1-20.07.03-30.1.03-17.32,0-34.63.02-51.95,0-8.18-.01-10.68-2.54-10.73-10.74-.02-2.9,0-5.79,0-9.14-1.58.19-2.77.33-3.97.49-12.46,1.61-25.15-7.21-25.49-19.68-.59-21.46-2.29-43.06,1.75-64.4,2.74-14.47,8.61-27.73,16.94-39.89,7.6-11.09,18.54-16.93,31.53-17.49,19.06-.81,38.18-.72,57.26-.31,12.91.27,22.95,6.97,31.02,16.77.77.94,1.52,1.91,3.1,3.9,0-3,0-4.7,0-6.41,0-38.19,0-76.39,0-114.58,0-9.86,2.21-12.12,11.85-12.12,92.73,0,185.47,0,278.2,0,9.13,0,11.52,2.36,11.52,11.49,0,64.41,0,128.82,0,193.24,0,9.31-2.44,11.7-11.88,11.7-72.34,0-144.68.03-217.03-.07-3.88,0-6.25.75-8.43,4.47-7.34,12.49-23.17,16.51-36,9.61-11.1-5.97-22.14-12.07-33.21-18.1-1.37-.74-2.78-1.38-4.85-2.41ZM180.44,17.34v8.39c0,43.37-.04,86.73.1,130.1,0,2.47.76,6.18,2.45,7.21,9.17,5.6,18.74,10.55,28.31,15.79,16.01-23.74,31.71-47.03,47.69-70.72,4.55,3.05,8.78,5.89,13.18,8.84-1.09,1.72-1.92,3.09-2.81,4.42-13.64,20.25-27.18,40.58-41.04,60.68-2.68,3.89-3.49,6.77.04,10.33,1.19,1.21,2.12,3.01,2.45,4.68.73,3.66,2.88,4.2,6.21,4.19,69.1-.09,138.19-.07,207.29-.07h5.1V17.34H180.44ZM138.43,258.19c0-2.05,0-3.95,0-5.85.08-21.36.16-42.72.25-64.08,0-1.46-.05-2.92.11-4.36.47-4.24,3.65-7.13,7.76-7.16,4.12-.03,7.41,2.82,7.89,7.02.2,1.76-.28,3.66.21,5.3.53,1.76,1.42,4.01,2.85,4.82,14.07,7.94,28.28,15.65,42.48,23.36,4.25,2.31,8.45,1.89,12.31-.95,3.77-2.78,5.61-7.04,3.99-11.1-1.42-3.59-4.33-7.33-7.61-9.3-10.93-6.58-22.39-12.26-33.48-18.59-2.68-1.53-5.21-3.89-6.92-6.46-6.18-9.28-11.86-18.89-17.95-28.23-5.23-8.03-12.52-13.24-22.37-13.39-16.82-.25-33.66-.25-50.48.03-10.88.18-19.85,4.38-25.1,14.52-3.03,5.87-6.28,11.7-8.59,17.86-8.7,23.13-5.08,47.32-5.41,71.14-.05,3.66,2.48,6.34,6.62,6.35,4.31.01,6.45-2.52,6.99-6.56.19-1.43.12-2.91.12-4.36,0-15.53-.01-31.07.01-46.6.01-6.92,2.75-10.56,7.85-10.62,5.12-.06,8.03,3.69,8.06,10.43,0,1.13,0,2.27,0,3.4,0,22.65,0,45.31,0,67.96v5.43h70.4Z"/>
      <path class="cls-1" d="M146.79,59.25c-.02,24.99-20.06,45.09-44.91,45.03-24.9-.05-44.85-20.13-44.82-45.13.03-24.95,20.12-45.12,44.92-45.08,24.83.04,44.83,20.2,44.81,45.18ZM101.86,30.11c-15.9.03-28.95,13.19-28.91,29.15.04,15.94,13.18,29.1,29.04,29.06,15.83-.03,28.97-13.3,28.93-29.2-.05-15.97-13.14-29.05-29.06-29.02Z"/>
      <path class="cls-1" d="M123.62,328.99c-.12,22.99-18.53,41.24-41.47,41.1-22.6-.14-40.85-18.57-40.88-41.27-.03-23.02,18.72-41.59,41.79-41.38,22.53.2,40.68,18.8,40.56,41.55ZM107.72,328.75c-.02-13.9-11.45-25.33-25.28-25.28-13.91.05-25.15,11.4-25.13,25.38.02,13.9,11.45,25.38,25.23,25.35,13.75-.04,25.21-11.61,25.19-25.44Z"/>
      <path class="cls-1" d="M373.57,328.93c-.09-22.94,18.28-41.48,41.11-41.49,22.77-.01,41.31,18.62,41.23,41.44-.08,22.72-18.33,41.1-40.94,41.21-22.92.11-41.31-18.17-41.4-41.16ZM439.89,328.66c-.07-13.95-11.46-25.29-25.32-25.2-13.86.09-25.17,11.56-25.09,25.46.08,13.85,11.63,25.36,25.36,25.26,13.83-.1,25.12-11.6,25.05-25.53Z"/>
      <path class="cls-1" d="M289.75,328.93c-.09,22.97-18.51,41.27-41.42,41.16-22.81-.11-41.16-18.82-40.89-41.69.27-22.98,18.74-41.14,41.66-40.96,22.51.18,40.74,18.78,40.65,41.49ZM223.38,328.72c-.03,13.88,11.35,25.41,25.13,25.47,13.75.06,25.25-11.45,25.29-25.32.04-13.94-11.25-25.35-25.13-25.41-13.84-.06-25.25,11.34-25.29,25.25Z"/>
      <path class="cls-2" d="M306.93,481.28h-117.02c.6-15.08.43-29.96,2.02-44.65,1.23-11.36,8.91-19.47,18.2-25.76,28.26-19.13,63.87-14.74,85.96,7.11,7.08,7.01,10.72,15.71,10.81,25.7.12,12.42.03,24.84.03,37.6Z"/>
      <path class="cls-2" d="M140.84,481.27H23.81c.59-15.09.3-30.01,2.16-44.65.81-6.37,4.84-13.32,9.42-18.06,25.16-26.01,67.84-26.6,94.27-.91,7.41,7.2,11.09,16.2,11.16,26.55.08,12.25.02,24.51.02,37.08Z"/>
      <path class="cls-2" d="M473.01,481.33h-116.45c0-5.62-.06-11.06.01-16.49.09-6.63.38-13.26.41-19.89.06-12.86,5.34-23.18,15.27-31.08,27.74-22.06,66.24-19.51,90.17,4.35,6.92,6.9,10.47,15.49,10.56,25.31.12,12.43.03,24.87.03,37.8Z"/>
      <path class="cls-2" d="M180.44,17.34h268.96v183.85h-5.1c-69.1,0-138.19-.02-207.29.07-3.33,0-5.48-.53-6.21-4.19-.33-1.67-1.26-3.47-2.45-4.68-3.53-3.57-2.72-6.44-.04-10.33,13.87-20.1,27.4-40.43,41.04-60.68.89-1.33,1.72-2.7,2.81-4.42-4.39-2.95-8.62-5.78-13.18-8.84-15.97,23.69-31.68,46.99-47.69,70.72-9.57-5.25-19.14-10.19-28.31-15.79-1.69-1.03-2.44-4.74-2.45-7.21-.14-43.37-.1-86.73-.1-130.1v-8.39ZM408.57,43.03v138.06h15.4V43.03h-15.4ZM302.26,99.99v81.07h15.01v-81.07h-15.01ZM381.2,105.25h-15.63v75.79h15.63v-75.79ZM334.38,129.29v51.96h15.47v-51.96h-15.47Z"/>
      <path class="cls-2" d="M138.43,258.19h-70.4v-5.43c0-22.65,0-45.31,0-67.96,0-1.13,0-2.27,0-3.4-.04-6.74-2.94-10.49-8.06-10.43-5.11.06-7.84,3.7-7.85,10.62-.03,15.53,0,31.07-.01,46.6,0,1.46.07,2.93-.12,4.36-.54,4.04-2.68,6.57-6.99,6.56-4.14-.01-6.68-2.69-6.62-6.35.33-23.82-3.28-48.01,5.41-71.14,2.32-6.16,5.56-11.99,8.59-17.86,5.24-10.14,14.22-14.35,25.1-14.52,16.82-.28,33.66-.27,50.48-.03,9.84.14,17.13,5.35,22.37,13.39,6.09,9.34,11.77,18.95,17.95,28.23,1.71,2.57,4.24,4.93,6.92,6.46,11.08,6.33,22.55,12.01,33.48,18.59,3.28,1.97,6.19,5.71,7.61,9.3,1.61,4.06-.22,8.32-3.99,11.1-3.85,2.84-8.05,3.26-12.31.95-14.2-7.72-28.4-15.42-42.48-23.36-1.43-.81-2.33-3.05-2.85-4.82-.49-1.64,0-3.55-.21-5.3-.48-4.2-3.77-7.05-7.89-7.02-4.11.03-7.29,2.92-7.76,7.16-.16,1.44-.1,2.91-.11,4.36-.09,21.36-.17,42.72-.25,64.08,0,1.9,0,3.8,0,5.85Z"/>
      <path class="cls-2" d="M101.86,30.11c15.92-.03,29.01,13.05,29.06,29.02.05,15.89-13.1,29.16-28.93,29.2-15.86.03-29-13.13-29.04-29.06-.04-15.97,13.01-29.13,28.91-29.15Z"/>
      <path class="cls-2" d="M107.72,328.75c.02,13.83-11.43,25.41-25.19,25.44-13.78.04-25.21-11.45-25.23-25.35-.02-13.98,11.23-25.33,25.13-25.38,13.83-.05,25.26,11.38,25.28,25.28Z"/>
      <path class="cls-2" d="M439.89,328.66c.07,13.92-11.22,25.43-25.05,25.53-13.73.1-25.28-11.41-25.36-25.26-.08-13.9,11.23-25.37,25.09-25.46,13.86-.09,25.26,11.25,25.32,25.2Z"/>
      <path class="cls-2" d="M223.38,328.72c.03-13.92,11.44-25.31,25.29-25.25,13.88.06,25.18,11.47,25.13,25.41-.04,13.86-11.54,25.38-25.29,25.32-13.79-.06-25.17-11.59-25.13-25.47Z"/>
      <path class="cls-1" d="M408.57,43.03h15.4v138.06h-15.4V43.03Z"/>
      <path class="cls-1" d="M302.26,99.99h15.01v81.07h-15.01v-81.07Z"/>
      <path class="cls-1" d="M381.2,105.25v75.79h-15.63v-75.79h15.63Z"/>
      <path class="cls-1" d="M334.38,129.29h15.47v51.96h-15.47v-51.96Z"/>
    </g>
  </g>
</svg>