<?xml version="1.0" encoding="UTF-8"?>
<svg id="Layer_2" data-name="Layer 2" xmlns="http://www.w3.org/2000/svg" viewBox="0 0 384 384">
  <defs>
    <style>
      .cls-1 {
        fill: #000;
      }

      .cls-1, .cls-2 {
        stroke-width: 0px;
      }

      .cls-2 {
        fill: #fff;
      }
    </style>
  </defs>
  <g id="Layer_1-2" data-name="Layer 1">
    <g>
      <path class="cls-2" d="M0,152.74V0h384v384H0C0,368.14,0,352.17,0,336.2c6.33,9.23,12.65,18.48,19.01,27.7,4.59,6.65,11.14,6.66,15.74.02,4.47-6.46,8.91-12.94,13.31-19.45,2.89-4.27,6.69-8.16,5.83-13.81.66-.2.89-.34,1.12-.34,44.17-.02,88.34-.05,132.51.03,1.03,0,2.47,1.01,3,1.96,2.35,4.15,5.85,6.73,10.25,8.24,38.72,13.27,77.49,13.53,116.33.5,9.94-3.33,13.43-8.07,13.46-18.49.03-10.48-.01-20.97.04-31.45,0-1.17.1-3.08.74-3.38,4.54-2.11,9.24-3.9,14.36-5.98,0,4.38,0,7.87,0,11.35,0,3.62-.07,7.24.03,10.86.11,4.21,2.87,6.83,6.55,6.39,3.32-.4,5.31-2.84,5.36-6.96.08-7.74.12-15.48-.03-23.21-.05-2.38.73-3.54,2.97-4.35,5.38-1.95,10.7-4.09,15.98-6.33,4.16-1.76,6.44-5.1,6.69-9.58.24-4.34-1.64-7.76-5.39-9.99-1.49-.88-3.15-1.49-4.77-2.13-30.8-12.21-61.58-24.45-92.44-36.51-2.97-1.16-3.82-2.57-3.81-5.64.09-55.78.07-111.57.07-167.35,0-15.57-8.23-23.84-23.75-23.85-18.72-.02-37.43,0-56.15,0-36.81,0-73.62-.04-110.42.02-14.13.02-22.6,8.58-22.69,22.63-.02,2.97,0,5.93,0,8.71-.57.31-.78.52-1,.52-2.74.05-5.49.09-8.23.09-14.09.03-22.54,8.48-22.55,22.62-.02,21.96,0,43.93,0,65.89,0,1.34,0,2.68,0,4.5-3.32,0-6.29.17-9.23-.03C12.2,138.69,4.13,142.3,0,152.74Z"/>
      <path class="cls-1" d="M0,152.74c4.13-10.44,12.2-14.05,22.87-13.32,2.94.2,5.91.03,9.23.03,0-1.82,0-3.16,0-4.5,0-21.96-.01-43.93,0-65.89.01-14.14,8.46-22.59,22.55-22.62,2.74,0,5.49-.04,8.23-.09.22,0,.43-.21,1-.52,0-2.77-.02-5.74,0-8.71.09-14.06,8.56-22.61,22.69-22.63,36.81-.06,73.62-.02,110.42-.02,18.72,0,37.43-.01,56.15,0,15.52.01,23.75,8.29,23.75,23.85,0,55.78.03,111.57-.07,167.35,0,3.06.84,4.48,3.81,5.64,30.86,12.06,61.64,24.3,92.44,36.51,1.62.64,3.28,1.25,4.77,2.13,3.76,2.22,5.63,5.65,5.39,9.99-.24,4.49-2.53,7.82-6.69,9.58-5.27,2.23-10.6,4.37-15.98,6.33-2.24.81-3.02,1.97-2.97,4.35.15,7.73.11,15.47.03,23.21-.04,4.13-2.03,6.57-5.36,6.96-3.67.44-6.43-2.18-6.55-6.39-.1-3.62-.03-7.24-.03-10.86,0-3.49,0-6.97,0-11.35-5.12,2.08-9.82,3.86-14.36,5.98-.64.3-.74,2.21-.74,3.38-.05,10.48,0,20.97-.04,31.45-.03,10.42-3.52,15.15-13.46,18.49-38.83,13.03-77.61,12.77-116.33-.5-4.4-1.51-7.9-4.09-10.25-8.24-.53-.94-1.98-1.96-3-1.96-44.17-.08-88.34-.05-132.51-.03-.23,0-.46.13-1.12.34.86,5.65-2.94,9.53-5.83,13.81-4.4,6.51-8.84,12.99-13.31,19.45-4.6,6.64-11.15,6.63-15.74-.02-6.36-9.22-12.67-18.46-19.01-27.7,0-61.15,0-122.31,0-183.46ZM188.82,318.13c0-9.38-.08-18.36.05-27.33.03-2.38-.78-3.43-3.01-4.29-14.06-5.41-28.07-10.98-42.06-16.57-5.19-2.07-7.74-5.8-7.6-10.84.14-5.27,3.08-8.51,7.77-10.36,28.37-11.23,56.72-22.5,85.14-33.59,2.9-1.13,3.88-2.47,3.87-5.6-.11-46.54-.07-93.09-.08-139.63,0-8.59-2.88-11.49-11.38-11.49-40.55,0-81.09,0-121.64,0-15.35,0-30.69-.03-46.04.01-6.01.02-9.72,3.31-9.74,8.95-.08,23.96-.06,47.92.02,71.88,0,1.03.66,2.46,1.49,3.01,6.11,4.08,8.25,9.84,8.23,16.98-.09,51.41-.05,102.82-.05,154.23v4.65h135.02ZM369.43,259.55c-.98-.58-1.37-.89-1.82-1.07-35.2-13.93-70.4-27.87-105.65-41.68-1.4-.55-3.44-.34-4.9.23-27.14,10.62-54.23,21.34-81.34,32.05-8.44,3.33-16.87,6.68-25.83,10.24,1.29.59,2.02.96,2.78,1.26,34.86,13.78,69.71,27.59,104.62,41.25,1.62.63,3.94.43,5.61-.22,17.41-6.76,34.75-13.71,52.13-20.58,17.94-7.1,35.9-14.17,54.4-21.47ZM264.93,204.88v-4.84c0-53.78,0-107.57,0-161.35,0-9.42-2.83-12.26-12.26-12.26-54.9,0-109.79,0-164.69.01-1.62,0-3.26.02-4.84.3-3.84.68-6.5,3.02-6.89,6.87-.43,4.15-.1,8.37-.1,12.81,1.71,0,3.19,0,4.67,0,46.91,0,93.82.23,140.73-.14,13.46-.11,23.62,9.31,23.48,23.51-.42,44.67-.16,89.35-.16,134.02v4.7c6.8-1.45,12.43-6.78,20.05-3.64ZM200.79,292.51c0,10.51.13,20.36-.06,30.2-.08,3.93,1.54,5.73,5.18,6.96,36.11,12.15,72.15,11.91,108.22-.18,3.26-1.09,4.56-2.94,4.53-6.29-.1-9.35-.03-18.7-.05-28.05,0-.7-.16-1.4-.28-2.38-1.8.65-3.31,1.16-4.78,1.74-15.85,6.27-31.72,12.5-47.53,18.88-4.31,1.74-8.3,1.78-12.62-.05-8.13-3.45-16.4-6.57-24.62-9.81-9.12-3.6-18.25-7.17-27.99-11ZM12.22,181.39v146.65h8.53v-146.65h-8.53ZM33.04,181.3v146.81h8.49v-146.81h-8.49ZM41.49,169.12c.16-.7.31-1.05.31-1.4.02-3.23.06-6.47.02-9.7-.06-4.11-1.93-6.36-6.03-6.5-5.96-.21-11.94-.16-17.9,0-2.76.08-5.47,1.28-5.74,4.33-.39,4.38-.1,8.82-.1,13.27h29.43ZM26.88,354.23c3.21-4.7,6.1-8.94,9.29-13.63h-18.62c3.23,4.72,6.13,8.95,9.33,13.63Z"/>
      <path class="cls-2" d="M188.82,318.13H53.8v-4.65c0-51.41-.04-102.82.05-154.23.01-7.15-2.12-12.9-8.23-16.98-.82-.55-1.48-1.98-1.49-3.01-.08-23.96-.1-47.92-.02-71.88.02-5.64,3.73-8.93,9.74-8.95,15.35-.04,30.69-.01,46.04-.01,40.55,0,81.09,0,121.64,0,8.5,0,11.38,2.9,11.38,11.49,0,46.54-.03,93.09.08,139.63,0,3.13-.98,4.47-3.87,5.6-28.42,11.1-56.77,22.36-85.14,33.59-4.69,1.86-7.63,5.1-7.77,10.36-.14,5.04,2.41,8.77,7.6,10.84,13.99,5.59,28,11.16,42.06,16.57,2.23.86,3.04,1.91,3.01,4.29-.13,8.97-.05,17.95-.05,27.33ZM138.52,104.01c19.46,0,38.92,0,58.38,0,1.24,0,2.54.09,3.72-.22,3.17-.84,4.89-2.95,4.62-6.31-.26-3.18-2.18-4.92-5.27-5.36-.98-.14-1.99-.07-2.99-.07-39.05,0-78.09,0-117.14,0-1.12,0-2.28-.1-3.36.13-2.7.57-4.46,2.21-4.77,5.04-.33,2.94.82,5.21,3.66,6.22,1.36.48,2.92.56,4.39.56,19.59.03,39.17.02,58.76.02ZM138.52,149.09c19.33,0,38.67,0,58,0,1.25,0,2.52.1,3.74-.1,2.93-.48,4.69-2.24,4.97-5.23.27-2.95-.98-5.18-3.85-6.08-1.5-.47-3.19-.5-4.79-.5-38.79-.03-77.59-.02-116.38,0-1.48,0-3.03,0-4.43.41-3.05.9-4.4,3.18-4.07,6.29.32,2.97,2.13,4.7,5.07,5.13,1.1.16,2.24.08,3.36.08,19.46,0,38.92,0,58.38,0ZM138.61,182.44c-10.73,0-21.45,0-32.18,0-9.6,0-19.21-.05-28.81.06-3.57.04-5.76,2.24-5.97,5.43-.22,3.39,1.84,5.81,5.48,6.34,1.1.16,2.24.14,3.36.14,38.67,0,77.33.01,116-.01,1.61,0,3.64.26,4.72-.58,1.69-1.3,3.71-3.39,3.78-5.22.08-1.85-1.72-4.15-3.31-5.57-.97-.87-3.09-.57-4.7-.57-19.46-.03-38.92-.02-58.37-.02ZM94.33,227.6c-5.35,0-10.71-.05-16.06.02-4.14.05-6.63,2.37-6.62,5.96.01,3.58,2.5,5.94,6.65,5.97,10.71.07,21.41.07,32.12,0,4.11-.03,6.63-2.44,6.62-6.01,0-3.57-2.53-5.88-6.66-5.93-5.35-.06-10.71-.02-16.06-.01ZM94.16,284.66c5.48,0,10.95.06,16.43-.02,3.94-.06,6.38-2.3,6.47-5.72.09-3.45-2.24-6.1-6.1-6.15-11.08-.15-22.16-.15-33.23,0-3.86.05-6.18,2.69-6.09,6.16.09,3.44,2.5,5.66,6.46,5.72,5.35.08,10.7.02,16.06.02Z"/>
      <path class="cls-2" d="M369.43,259.55c-18.5,7.3-36.46,14.37-54.4,21.47-17.37,6.87-34.71,13.82-52.13,20.58-1.67.65-4,.85-5.61.22-34.91-13.66-69.76-27.47-104.62-41.25-.76-.3-1.49-.67-2.78-1.26,8.96-3.55,17.39-6.9,25.83-10.24,27.1-10.71,54.2-21.43,81.34-32.05,1.46-.57,3.49-.78,4.9-.23,35.25,13.81,70.45,27.75,105.65,41.68.45.18.85.49,1.82,1.07Z"/>
      <path class="cls-2" d="M264.93,204.88c-7.62-3.14-13.25,2.19-20.05,3.64v-4.7c0-44.67-.27-89.35.16-134.02.13-14.2-10.03-23.62-23.48-23.51-46.91.37-93.82.14-140.73.14-1.48,0-2.97,0-4.67,0,0-4.44-.33-8.66.1-12.81.39-3.85,3.05-6.19,6.89-6.87,1.58-.28,3.23-.3,4.84-.3,54.9-.01,109.79-.01,164.69-.01,9.43,0,12.26,2.84,12.26,12.26,0,53.78,0,107.57,0,161.35v4.84Z"/>
      <path class="cls-2" d="M200.79,292.51c9.75,3.83,18.87,7.41,27.99,11,8.22,3.24,16.49,6.36,24.62,9.81,4.32,1.83,8.31,1.79,12.62.05,15.81-6.38,31.68-12.61,47.53-18.88,1.47-.58,2.98-1.09,4.78-1.74.12.99.27,1.68.28,2.38.02,9.35-.05,18.7.05,28.05.03,3.35-1.27,5.2-4.53,6.29-36.07,12.09-72.1,12.33-108.22.18-3.64-1.22-5.26-3.03-5.18-6.96.19-9.84.06-19.69.06-30.2Z"/>
      <path class="cls-2" d="M12.22,181.39h8.53v146.65h-8.53v-146.65Z"/>
      <path class="cls-2" d="M33.04,181.3h8.49v146.81h-8.49v-146.81Z"/>
      <path class="cls-2" d="M41.49,169.12H12.06c0-4.45-.29-8.89.1-13.27.27-3.05,2.98-4.25,5.74-4.33,5.96-.17,11.94-.22,17.9,0,4.1.15,5.97,2.39,6.03,6.5.04,3.23,0,6.47-.02,9.7,0,.35-.15.7-.31,1.4Z"/>
      <path class="cls-2" d="M26.88,354.23c-3.2-4.68-6.1-8.91-9.33-13.63h18.62c-3.19,4.68-6.09,8.93-9.29,13.63Z"/>
      <path class="cls-1" d="M138.52,104.01c-19.59,0-39.17.01-58.76-.02-1.47,0-3.03-.08-4.39-.56-2.84-1.01-3.98-3.28-3.66-6.22.31-2.83,2.08-4.47,4.77-5.04,1.08-.23,2.24-.13,3.36-.13,39.05,0,78.09,0,117.14,0,1,0,2.01-.07,2.99.07,3.09.45,5.01,2.19,5.27,5.36.27,3.36-1.45,5.47-4.62,6.31-1.18.31-2.47.22-3.72.22-19.46.01-38.92,0-58.38,0Z"/>
      <path class="cls-1" d="M138.52,149.09c-19.46,0-38.92,0-58.38,0-1.12,0-2.26.07-3.36-.08-2.94-.42-4.75-2.15-5.07-5.13-.33-3.11,1.02-5.4,4.07-6.29,1.4-.41,2.95-.41,4.43-.41,38.79-.02,77.59-.02,116.38,0,1.6,0,3.28.03,4.79.5,2.87.9,4.12,3.13,3.85,6.08-.27,2.98-2.04,4.75-4.97,5.23-1.22.2-2.49.1-3.74.1-19.33,0-38.67,0-58,0Z"/>
      <path class="cls-1" d="M138.61,182.44c19.46,0,38.92-.01,58.37.02,1.61,0,3.73-.29,4.7.57,1.59,1.42,3.39,3.72,3.31,5.57-.08,1.83-2.09,3.92-3.78,5.22-1.09.83-3.11.57-4.72.58-38.67.03-77.33.02-116,.01-1.12,0-2.26.02-3.36-.14-3.64-.53-5.7-2.95-5.48-6.34.21-3.2,2.39-5.39,5.97-5.43,9.6-.12,19.21-.06,28.81-.06,10.73,0,21.45,0,32.18,0Z"/>
      <path class="cls-1" d="M94.33,227.6c5.35,0,10.71-.05,16.06.02,4.13.05,6.65,2.36,6.66,5.93,0,3.56-2.51,5.98-6.62,6.01-10.71.07-21.41.07-32.12,0-4.15-.03-6.64-2.38-6.65-5.97-.01-3.59,2.48-5.91,6.62-5.96,5.35-.07,10.71-.02,16.06-.02Z"/>
      <path class="cls-1" d="M94.16,284.66c-5.35,0-10.71.06-16.06-.02-3.96-.06-6.37-2.28-6.46-5.72-.09-3.46,2.23-6.1,6.09-6.16,11.08-.15,22.16-.15,33.23,0,3.85.05,6.19,2.7,6.1,6.15-.09,3.42-2.53,5.66-6.47,5.72-5.48.08-10.95.02-16.43.02Z"/>
    </g>
  </g>
</svg>