<?xml version="1.0" encoding="UTF-8"?>
<svg id="Layer_2" data-name="Layer 2" xmlns="http://www.w3.org/2000/svg" viewBox="0 0 384 384">
  <defs>
    <style>
      .cls-1 {
        fill: #000;
      }

      .cls-1, .cls-2 {
        stroke-width: 0px;
      }

      .cls-2 {
        fill: #fff;
      }
    </style>
  </defs>
  <g id="Layer_1-2" data-name="Layer 1">
    <g>
      <path class="cls-2" d="M226.02,0c52.65,0,105.31,0,157.98,0v384H0V0c25.6,0,51.3,0,77,0-.18.16-.33.41-.54.47-17.83,5.06-25.76,15.49-25.76,33.95,0,105.16,0,210.31,0,315.47,0,20.35,13.11,33.43,33.47,33.43,71.61,0,143.23,0,214.84,0,20.34,0,33.42-13.09,33.43-33.47.01-79.58-.02-159.17.07-238.75,0-4.03-1.15-7.06-4.04-9.94-32.45-32.3-64.79-64.71-97.2-97.04C229.7,2.56,227.78,1.36,226.02,0Z"/>
      <path class="cls-1" d="M226.02,0c1.76,1.36,3.68,2.56,5.25,4.12,32.41,32.34,64.75,64.74,97.2,97.04,2.89,2.87,4.04,5.9,4.04,9.94-.08,79.58-.05,159.17-.07,238.75,0,20.38-13.09,33.47-33.43,33.47-71.61,0-143.23,0-214.84,0-20.36,0-33.46-13.08-33.47-33.43-.01-105.16,0-210.31,0-315.47,0-18.46,7.93-28.89,25.76-33.95.21-.06.36-.31.54-.47,49.67,0,99.34,0,149.02,0ZM216.43,15.11c-1.75,0-3.09,0-4.43,0-42.67,0-85.34,0-128.01,0-11.78,0-18.2,6.48-18.2,18.35,0,105.41,0,210.82,0,316.23,0,12.09,6.39,18.52,18.42,18.52,71.62,0,143.24,0,214.85,0,11.82,0,18.3-6.47,18.3-18.26,0-76.59,0-153.19,0-229.78,0-1.32,0-2.63,0-4.15h-4.61c-20.71,0-41.42,0-62.14,0-21.22,0-34.18-13.03-34.19-34.35,0-20.58,0-41.17,0-61.75v-4.81ZM305.13,100.88c-24.48-24.48-48.92-48.91-73.25-73.24.07-.19-.16.14-.16.46,0,19.21-.2,38.42.12,57.62.15,8.69,7.06,14.8,15.96,15.14,3.49.13,6.99.03,10.48.03,15.7,0,31.4,0,46.85,0Z"/>
      <path class="cls-2" d="M216.43,15.11v4.81c0,20.58,0,41.17,0,61.75,0,21.32,12.97,34.34,34.19,34.35,20.71,0,41.42,0,62.14,0h4.61c0,1.52,0,2.84,0,4.15,0,76.59,0,153.19,0,229.78,0,11.79-6.48,18.26-18.3,18.26-71.62,0-143.24,0-214.85,0-12.02,0-18.42-6.43-18.42-18.52,0-105.41,0-210.82,0-316.23,0-11.87,6.42-18.35,18.2-18.35,42.67,0,85.34,0,128.01,0,1.34,0,2.67,0,4.43,0ZM191.56,260.04c-19.2,0-38.39,0-57.59.01-1.49,0-3.01.02-4.46.31-3.58.69-5.96,3.54-6.07,7.04-.12,3.66,2.21,6.73,5.92,7.55,1.44.32,2.96.36,4.45.37,38.52.02,77.04.02,115.55,0,1.61,0,3.26-.08,4.81-.47,3.49-.87,5.75-3.96,5.52-7.47-.24-3.63-2.14-6.08-5.72-6.93-1.55-.37-3.21-.39-4.82-.39-19.2-.02-38.39-.02-57.59-.02ZM191.18,207.52c3.37,0,6.73,0,10.1,0,16.7,0,33.41.03,50.11-.03,5.14-.02,8.36-3.07,8.33-7.58-.04-4.46-3.34-7.39-8.46-7.5-.62-.01-1.25,0-1.87,0-38.52,0-77.04,0-115.56,0-1.37,0-2.76-.08-4.1.14-3.46.57-6.06,3.53-6.27,6.94-.21,3.33,1.81,6.6,4.96,7.54,1.51.45,3.2.46,4.8.46,19.32.03,38.64.02,57.97.02ZM191.15,241.4c19.2,0,38.39,0,57.59,0,1.62,0,3.26,0,4.84-.25,3.38-.54,5.8-3.26,6.1-6.62.31-3.33-1.58-6.58-4.79-7.63-1.61-.53-3.42-.67-5.14-.67-38.77-.04-77.54-.03-116.31,0-1.6,0-3.27.09-4.79.53-3.45,1-5.51,4.19-5.23,7.69.28,3.5,2.81,6.24,6.39,6.75,1.47.21,2.98.2,4.47.2,18.95.01,37.9,0,56.84,0ZM172.11,293.98v.02c-13.59,0-27.19-.06-40.78.03-4.71.03-7.77,3.02-7.9,7.23-.13,4.29,3.08,7.53,7.78,7.86.62.04,1.25.02,1.87.02,25.81,0,51.63,0,77.44-.02,1.48,0,3.02-.06,4.42-.49,5.14-1.56,7.32-7.9,3.64-11.63-1.69-1.71-4.74-2.85-7.2-2.9-13.09-.28-26.18-.13-39.28-.13Z"/>
      <path class="cls-2" d="M305.13,100.88c-15.45,0-31.15,0-46.85,0-3.49,0-6.99.1-10.48-.03-8.9-.33-15.82-6.44-15.96-15.14-.32-19.2-.12-38.41-.12-57.62,0-.32.23-.64.16-.46,24.34,24.33,48.77,48.76,73.25,73.24Z"/>
      <path class="cls-1" d="M191.56,260.04c19.2,0,38.39,0,57.59.02,1.61,0,3.27.02,4.82.39,3.58.85,5.48,3.3,5.72,6.93.23,3.51-2.03,6.6-5.52,7.47-1.55.39-3.2.47-4.81.47-38.52.02-77.04.02-115.55,0-1.49,0-3.01-.05-4.45-.37-3.71-.81-6.05-3.88-5.92-7.55.12-3.5,2.49-6.35,6.07-7.04,1.45-.28,2.97-.3,4.46-.31,19.2-.02,38.39-.01,57.59-.01Z"/>
      <path class="cls-1" d="M191.18,207.52c-19.32,0-38.64.01-57.97-.02-1.61,0-3.29-.01-4.8-.46-3.15-.94-5.17-4.21-4.96-7.54.21-3.41,2.81-6.37,6.27-6.94,1.34-.22,2.73-.14,4.1-.14,38.52,0,77.04,0,115.56,0,.62,0,1.25-.01,1.87,0,5.13.12,8.43,3.04,8.46,7.5.04,4.51-3.18,7.56-8.33,7.58-16.7.06-33.41.02-50.11.03-3.37,0-6.73,0-10.1,0Z"/>
      <path class="cls-1" d="M191.15,241.4c-18.95,0-37.9,0-56.84,0-1.49,0-3,0-4.47-.2-3.58-.51-6.11-3.26-6.39-6.75-.28-3.5,1.78-6.69,5.23-7.69,1.52-.44,3.19-.53,4.79-.53,38.77-.03,77.54-.03,116.31,0,1.72,0,3.52.14,5.14.67,3.21,1.05,5.09,4.3,4.79,7.63-.31,3.36-2.73,6.08-6.1,6.62-1.59.25-3.23.25-4.84.25-19.2.02-38.39,0-57.59,0Z"/>
      <path class="cls-1" d="M172.11,293.98c13.09,0,26.19-.15,39.28.13,2.46.05,5.51,1.19,7.2,2.9,3.67,3.73,1.49,10.07-3.64,11.63-1.4.42-2.94.49-4.42.49-25.81.03-51.63.02-77.44.02-.62,0-1.25.02-1.87-.02-4.71-.32-7.92-3.57-7.78-7.86.13-4.21,3.19-7.2,7.9-7.23,13.59-.09,27.18-.03,40.78-.03v-.02Z"/>
    </g>
  </g>
</svg>