<?xml version="1.0" encoding="UTF-8"?>
<svg id="Layer_2" data-name="Layer 2" xmlns="http://www.w3.org/2000/svg" viewBox="0 0 384 384">
  <defs>
    <style>
      .cls-1 {
        fill: #000;
      }

      .cls-1, .cls-2 {
        stroke-width: 0px;
      }

      .cls-2 {
        fill: #fff;
      }
    </style>
  </defs>
  <g id="Layer_1-2" data-name="Layer 1">
    <g>
      <path class="cls-2" d="M0,205.1V0c128,0,256,0,384,0v384H0c0-58.39,0-116.77,0-175.16,1.92,2.82,4.56,3.74,7.97,3.71,15.84-.13,31.68-.06,47.52-.06,7.11,0,14.22.06,21.33-.03,4.07-.05,6.42-2.3,6.37-5.76-.05-3.59-2.37-5.47-6.95-5.47-23.07-.02-46.15.04-69.22-.06-3.27-.01-5.47,1.21-7.02,3.93ZM243.56,310.83c58.24-.03,105.37-47.2,105.32-105.41-.05-58.2-47.3-105.3-105.52-105.2-58.07.1-105.03,47.1-105.11,105.22-.08,58.18,47.13,105.43,105.32,105.4ZM209.54,69.86c-1.26.42-2.18.76-3.13,1.02-15.54,4.22-29.93,10.93-43.02,20.3-4.95,3.55-9.64,7.5-14.25,11.49-2.6,2.25-2.65,5.73-.59,8.01,2.03,2.26,5.35,2.38,8.08.27.59-.46,1.13-.98,1.7-1.47,49.9-43.39,121.54-43.66,170.63.53,34.8,31.33,48.33,71.13,40.92,117.47-4.58,28.66-18.31,52.69-39.41,72.56-3.31,3.12-3.7,6.61-1.2,9.09,2.42,2.4,5.71,2.1,8.89-.89,27.61-25.96,43.32-57.92,44.75-95.69,2.02-53.33-20.18-95.02-64.42-124.82-12.37-8.33-26.1-13.9-40.83-17.73,0-6.82.06-13.53-.01-20.24-.08-7.44-4.22-11.64-11.6-11.67-14.97-.06-29.93-.06-44.9,0-7.41.03-11.52,4.21-11.58,11.63-.05,6.6,0,13.21,0,20.13ZM243.62,345.17c19.85.02,38.87-3.96,56.93-12.16,5.88-2.67,11.52-5.91,17.12-9.13,2.99-1.72,3.7-5.08,2.15-7.75-1.56-2.69-4.69-3.45-7.83-1.89-.67.33-1.3.74-1.94,1.12-30.91,18.29-63.9,23.22-98.64,14.45-81.12-20.48-121.09-114.21-79.87-186.97,3.06-5.4,7.01-10.3,10.11-15.69.95-1.65,1.16-4.51.35-6.14-.72-1.44-3.4-2.75-5.1-2.62-1.75.14-3.83,1.74-4.97,3.29-24.7,33.41-33.34,70.76-25.23,111.36,13.11,65.63,70.28,112.02,136.92,112.14ZM56.43,179.59c9.35,0,18.7.05,28.05-.02,3.84-.03,6.17-2.22,6.24-5.5.08-3.49-2.25-5.7-6.34-5.71-18.45-.04-36.9-.1-55.35.1-1.92.02-4.47,1.25-5.59,2.77-2.75,3.73.45,8.3,5.68,8.35,9.1.08,18.2.02,27.3.02ZM56.79,242.71c9.1,0,18.2.04,27.3-.02,4.3-.02,6.54-1.94,6.63-5.42.09-3.59-2.35-5.81-6.68-5.82-18.2-.04-36.4-.04-54.6,0-4.3,0-6.91,2.25-6.9,5.69.01,3.4,2.61,5.54,6.96,5.56,9.1.04,18.2.01,27.3.01ZM69.42,275.59c7.48,0,14.97.05,22.45-.02,4.12-.04,6.44-2.18,6.39-5.68-.05-3.28-2.38-5.55-6.2-5.57-15.09-.07-30.18-.07-45.27,0-4.04.02-6.45,2.33-6.4,5.76.05,3.43,2.4,5.47,6.59,5.5,7.48.05,14.96.02,22.45.01ZM69.42,146.69c7.36,0,14.72.03,22.07-.01,4.36-.02,6.81-2.16,6.75-5.74-.06-3.45-2.4-5.49-6.58-5.5-14.84-.03-29.68-.03-44.52,0-4.37,0-6.83,2.14-6.77,5.7.06,3.51,2.53,5.52,6.97,5.54,7.36.03,14.72,0,22.07,0Z"/>
      <path class="cls-1" d="M0,205.1c1.55-2.72,3.75-3.94,7.02-3.93,23.07.1,46.15.04,69.22.06,4.59,0,6.9,1.88,6.95,5.47.05,3.47-2.31,5.71-6.37,5.76-7.11.09-14.22.03-21.33.03-15.84,0-31.68-.07-47.52.06-3.41.03-6.05-.88-7.97-3.71v-3.74Z"/>
      <path class="cls-1" d="M243.56,310.83c-58.19.03-105.4-47.22-105.32-105.4.08-58.11,47.04-105.12,105.11-105.22,58.23-.1,105.48,47.01,105.52,105.2.05,58.22-47.08,105.38-105.32,105.41ZM249.23,299.45c21.77-1.64,40.35-9.37,56.99-23.81-3.82-3.66-7.64-6.88-10.87-10.61-1.22-1.41-1.78-4.2-1.31-6.01.39-1.48,2.7-3.27,4.28-3.39,1.78-.14,4.06,1.02,5.49,2.32,3.45,3.13,6.54,6.67,9.78,10.05,13.74-14.49,24.01-39.39,23.59-56.86-4.56,0-9.15.03-13.73,0-4.53-.03-6.9-1.94-6.97-5.5-.07-3.69,2.43-5.74,7.1-5.77,4.58-.03,9.16,0,13.9,0-1.66-21.76-9.36-40.4-23.77-56.94-3.51,3.65-6.56,6.93-9.72,10.1-3.16,3.17-6.3,3.48-8.84,1.04-2.62-2.51-2.27-5.76,1-9.09,3.19-3.24,6.4-6.46,9.75-9.84-16.48-14.26-35.05-21.96-56.69-23.53,0,4.75.02,9.21,0,13.67-.02,4.75-1.96,7.27-5.58,7.32-3.66.05-5.65-2.43-5.68-7.15-.02-4.55,0-9.11,0-13.89-21.87,1.7-40.51,9.41-56.98,23.77,3.56,3.43,6.83,6.49,10.01,9.66,3.33,3.32,3.61,6.59.94,9.12-2.54,2.41-5.67,2.06-8.84-1.11-3.22-3.23-6.35-6.55-9.75-10.06-14.37,16.72-22.19,35.29-23.67,56.93,4.97,0,9.44-.02,13.91,0,4.6.03,7.2,2.18,7.1,5.8-.1,3.48-2.57,5.43-7.05,5.47-4.58.03-9.15,0-14,0,1.6,21.83,9.4,40.47,23.73,56.97,3.22-3.35,6.12-6.43,9.09-9.45,3.81-3.86,6.94-4.34,9.63-1.56,2.66,2.75,2.14,5.75-1.81,9.64-3.01,2.96-6.12,5.82-9.38,8.9,16.62,14.43,35.29,22.2,57.06,23.79,0-4.92-.02-9.5,0-14.09.03-4.46,2.01-6.9,5.53-6.93,3.54-.03,5.67,2.45,5.72,6.81.05,4.59.01,9.19.01,14.22Z"/>
      <path class="cls-1" d="M209.54,69.86c0-6.93-.04-13.53,0-20.13.05-7.42,4.17-11.6,11.58-11.63,14.97-.06,29.93-.06,44.9,0,7.38.03,11.52,4.23,11.6,11.67.07,6.71.01,13.43.01,20.24,14.73,3.83,28.45,9.4,40.83,17.73,44.24,29.8,66.44,71.49,64.42,124.82-1.43,37.77-17.14,69.73-44.75,95.69-3.17,2.98-6.47,3.29-8.89.89-2.5-2.48-2.11-5.97,1.2-9.09,21.11-19.87,34.83-43.9,39.41-72.56,7.41-46.35-6.11-86.14-40.92-117.47-49.09-44.19-120.73-43.92-170.63-.53-.56.49-1.1,1.01-1.7,1.47-2.73,2.11-6.05,1.99-8.08-.27-2.06-2.29-2.01-5.77.59-8.01,4.61-3.99,9.3-7.94,14.25-11.49,13.08-9.37,27.48-16.08,43.02-20.3.95-.26,1.87-.61,3.13-1.02ZM221.09,49.53v17.1h45.05v-17.1h-45.05Z"/>
      <path class="cls-1" d="M243.62,345.17c-66.64-.12-123.81-46.52-136.92-112.14-8.11-40.6.53-77.95,25.23-111.36,1.14-1.55,3.22-3.15,4.97-3.29,1.7-.13,4.37,1.18,5.1,2.62.81,1.63.6,4.49-.35,6.14-3.1,5.39-7.05,10.28-10.11,15.69-41.21,72.76-1.25,166.5,79.87,186.97,34.74,8.77,67.73,3.84,98.64-14.45.64-.38,1.28-.78,1.94-1.12,3.14-1.56,6.27-.8,7.83,1.89,1.55,2.68.84,6.03-2.15,7.75-5.61,3.22-11.24,6.46-17.12,9.13-18.06,8.2-37.08,12.18-56.93,12.16Z"/>
      <path class="cls-1" d="M56.43,179.59c-9.1,0-18.2.06-27.3-.02-5.23-.05-8.43-4.62-5.68-8.35,1.12-1.51,3.67-2.74,5.59-2.77,18.45-.2,36.9-.14,55.35-.1,4.09,0,6.41,2.22,6.34,5.71-.07,3.29-2.41,5.47-6.24,5.5-9.35.07-18.7.02-28.05.02Z"/>
      <path class="cls-1" d="M56.79,242.71c-9.1,0-18.2.03-27.3-.01-4.35-.02-6.95-2.16-6.96-5.56-.01-3.44,2.6-5.68,6.9-5.69,18.2-.03,36.4-.04,54.6,0,4.34,0,6.77,2.23,6.68,5.82-.08,3.48-2.33,5.4-6.63,5.42-9.1.05-18.2.02-27.3.02Z"/>
      <path class="cls-1" d="M69.42,275.59c-7.48,0-14.96.04-22.45-.01-4.19-.03-6.54-2.07-6.59-5.5-.05-3.42,2.35-5.74,6.4-5.76,15.09-.07,30.18-.07,45.27,0,3.82.02,6.16,2.29,6.2,5.57.05,3.49-2.26,5.64-6.39,5.68-7.48.07-14.96.02-22.45.02Z"/>
      <path class="cls-1" d="M69.42,146.69c-7.36,0-14.72.02-22.07,0-4.44-.02-6.91-2.02-6.97-5.54-.06-3.56,2.39-5.69,6.77-5.7,14.84-.03,29.68-.03,44.52,0,4.18,0,6.52,2.05,6.58,5.5.06,3.58-2.39,5.71-6.75,5.74-7.36.04-14.72.01-22.07.01Z"/>
      <path class="cls-2" d="M249.23,299.45c0-5.04.04-9.63-.01-14.22-.05-4.36-2.17-6.84-5.72-6.81-3.53.03-5.5,2.47-5.53,6.93-.03,4.59,0,9.17,0,14.09-21.77-1.59-40.44-9.36-57.06-23.79,3.26-3.09,6.37-5.95,9.38-8.9,3.95-3.88,4.47-6.88,1.81-9.64-2.68-2.77-5.82-2.3-9.63,1.56-2.97,3.01-5.88,6.1-9.09,9.45-14.34-16.51-22.13-35.14-23.73-56.97,4.84,0,9.42.03,14,0,4.48-.03,6.95-1.98,7.05-5.47.1-3.62-2.5-5.77-7.1-5.8-4.47-.03-8.94,0-13.91,0,1.48-21.64,9.3-40.21,23.67-56.93,3.4,3.52,6.53,6.84,9.75,10.06,3.18,3.18,6.3,3.52,8.84,1.11,2.67-2.53,2.39-5.8-.94-9.12-3.17-3.17-6.45-6.23-10.01-9.66,16.46-14.35,35.11-22.06,56.98-23.77,0,4.79-.02,9.34,0,13.89.02,4.72,2.02,7.2,5.68,7.15,3.62-.05,5.55-2.57,5.58-7.32.02-4.46,0-8.92,0-13.67,21.64,1.57,40.21,9.27,56.69,23.53-3.35,3.38-6.57,6.59-9.75,9.84-3.27,3.33-3.62,6.58-1,9.09,2.54,2.44,5.67,2.13,8.84-1.04,3.16-3.17,6.22-6.45,9.72-10.1,14.4,16.54,22.11,35.17,23.77,56.94-4.75,0-9.33-.02-13.9,0-4.67.03-7.17,2.08-7.1,5.77.07,3.57,2.44,5.47,6.97,5.5,4.58.03,9.17,0,13.73,0,.43,17.46-9.85,42.37-23.59,56.86-3.24-3.38-6.32-6.92-9.78-10.05-1.43-1.3-3.71-2.46-5.49-2.32-1.58.13-3.89,1.92-4.28,3.39-.48,1.81.09,4.59,1.31,6.01,3.23,3.74,7.04,6.96,10.87,10.61-16.64,14.44-35.23,22.17-56.99,23.81ZM250.18,189.25c-.32-.14-.64-.28-.95-.42,0-1.2,0-2.41,0-3.61,0-7.47.06-14.95-.04-22.42-.05-3.53-2.32-5.86-5.41-5.99-3.03-.12-5.7,2-5.72,5.17-.12,14.08-.17,28.15.1,42.23.03,1.63,1.91,3.99,3.48,4.6,1.57.61,4.46.11,5.68-1.05,6.87-6.5,13.45-13.31,20.06-20.09,2.79-2.87,2.88-6.25.45-8.58-2.48-2.38-5.58-2.17-8.56.77-3.09,3.06-6.06,6.26-9.08,9.4Z"/>
      <path class="cls-2" d="M221.09,49.53h45.05v17.1h-45.05v-17.1Z"/>
      <path class="cls-1" d="M250.18,189.25c3.02-3.14,5.99-6.33,9.08-9.4,2.97-2.94,6.07-3.15,8.56-.77,2.43,2.33,2.35,5.71-.45,8.58-6.6,6.78-13.19,13.59-20.06,20.09-1.23,1.16-4.11,1.66-5.68,1.05-1.57-.61-3.45-2.97-3.48-4.6-.27-14.07-.22-28.15-.1-42.23.03-3.17,2.69-5.29,5.72-5.17,3.09.13,5.36,2.46,5.41,5.99.1,7.47.04,14.95.04,22.42,0,1.2,0,2.41,0,3.61.32.14.64.28.95.42Z"/>
    </g>
  </g>
</svg>