<?xml version="1.0" encoding="UTF-8"?>
<svg id="Layer_2" data-name="Layer 2" xmlns="http://www.w3.org/2000/svg" viewBox="0 0 449.56 449.56">
  <defs>
    <style>
      .cls-1 {
        fill: #000;
      }

      .cls-1, .cls-2 {
        stroke-width: 0px;
      }

      .cls-2 {
        fill: #fff;
      }
    </style>
  </defs>
  <g id="Layer_1-2" data-name="Layer 1">
    <g>
      <path class="cls-1" d="M211.2,0c9.64,0,19.28,0,28.92,0,1.12.26,2.22.65,3.35.75,42.21,3.41,80.52,17.54,114.45,42.8,11.87,8.83,22.59,19.19,33.18,28.28-25.8,25.95-50.75,51.04-75.69,76.12-42.2-48.86-110.08-51.14-154.33-22.17-42.79,28.02-62.98,81.36-48.77,131.09,13.93,48.74,59.4,83.81,109.3,84.97,56.15,1.3,94.97-35.16,107.7-64.12h-114.37v-106.64h228.38c.94,4.78,2.02,9.45,2.74,14.18,1.28,8.34,2.35,16.71,3.51,25.07v28.04c-.96,7.36-1.66,14.76-2.92,22.07-9.28,53.81-34.23,99.07-75.97,134.23-55.83,47.03-120.25,63.48-191.75,49-54.5-11.04-98.71-39.73-132.27-83.96C9.45,310.65-4.95,255.04,2.98,194.04c5.88-45.22,24.52-84.98,54.99-118.89C92.48,36.75,135.22,12.67,186.13,3.49c8.29-1.5,16.71-2.35,25.06-3.49ZM360.21,73.2C298.35,14.9,189.84-.69,105.05,60.76,23.78,119.67-1.85,234.07,47.29,321.89c51.31,91.72,161.61,130.21,256.89,89.34,97.75-41.93,135.58-142.1,121.03-218.7h-189.01v64.11h124.54c-18.1,65.8-70.05,101.41-123.83,105.99-60.18,5.12-116.26-29.03-139.74-84.67-23.02-54.54-8.57-118.26,35.85-157.53,22.33-19.74,48.4-31.42,78.04-34.28,39.23-3.8,74.09,7.44,104.03,32.09,15.24-15.2,30.19-30.12,45.14-45.03Z"/>
      <path class="cls-2" d="M449.56,210.32c-1.16-8.36-2.22-16.73-3.51-25.07-.73-4.72-1.81-9.39-2.74-14.18h-228.38v106.64h114.37c-12.73,28.95-51.55,65.42-107.7,64.12-49.9-1.16-95.37-36.23-109.3-84.97-14.21-49.74,5.98-103.08,48.77-131.09,44.25-28.97,112.13-26.69,154.33,22.17,24.93-25.07,49.89-50.17,75.69-76.12-10.58-9.09-21.31-19.45-33.18-28.28C323.98,18.29,285.68,4.16,243.46.75,242.34.65,241.23.26,240.12,0c69.81,0,139.63,0,209.44,0v210.32Z"/>
      <path class="cls-2" d="M211.2,0c-8.36,1.15-16.77,2-25.06,3.49-50.92,9.18-93.65,33.26-128.16,71.66C27.5,109.07,8.87,148.82,2.98,194.04c-7.93,61,6.47,116.6,43.68,165.65,33.55,44.23,77.77,72.93,132.27,83.96,71.5,14.48,135.92-1.96,191.75-49,41.74-35.17,66.69-80.43,75.97-134.23,1.26-7.31,1.96-14.71,2.92-22.07v211.2H0C0,299.71,0,149.85,0,0,70.4,0,140.8,0,211.2,0Z"/>
      <path class="cls-2" d="M360.21,73.2c-14.95,14.91-29.91,29.83-45.14,45.03-29.94-24.66-64.8-35.89-104.03-32.09-29.64,2.87-55.71,14.54-78.04,34.28-44.42,39.27-58.87,102.99-35.85,157.53,23.48,55.64,79.56,89.8,139.74,84.67,53.78-4.58,105.73-40.18,123.83-105.99h-124.54v-64.11h189.01c14.56,76.6-23.28,176.77-121.03,218.7-95.27,40.87-205.58,2.37-256.89-89.34C-1.85,234.07,23.78,119.67,105.05,60.76,189.84-.69,298.35,14.9,360.21,73.2Z"/>
    </g>
  </g>
</svg>