<?xml version="1.0" encoding="UTF-8"?>
<svg id="Layer_2" data-name="Layer 2" xmlns="http://www.w3.org/2000/svg" viewBox="0 0 409.6 409.6">
  <defs>
    <style>
      .cls-1 {
        fill: #000;
      }

      .cls-1, .cls-2 {
        stroke-width: 0px;
      }

      .cls-2 {
        fill: #fff;
      }
    </style>
  </defs>
  <g id="Layer_1-2" data-name="Layer 1">
    <g>
      <path class="cls-2" d="M287.44,0c40.72,0,81.44,0,122.16,0v409.6H0V0h73.46c-16.39,6.72-19.96,12.12-19.96,30.17,0,117.1,0,234.2,0,351.29,0,17.78,9.56,27.33,27.35,27.33,82.9,0,165.8,0,248.7,0,17.79,0,27.36-9.55,27.36-27.33,0-101.4-.02-202.79.08-304.19,0-4.49-1.41-7.78-4.5-10.95-19.86-20.41-39.56-40.96-59.36-61.43-1.73-1.79-3.77-3.28-5.67-4.9Z"/>
      <path class="cls-1" d="M287.44,0c1.9,1.63,3.94,3.12,5.67,4.9,19.8,20.47,39.51,41.02,59.36,61.43,3.09,3.17,4.51,6.46,4.5,10.95-.1,101.4-.07,202.79-.08,304.19,0,17.78-9.56,27.33-27.36,27.33-82.9,0-165.8,0-248.7,0-17.79,0-27.35-9.55-27.35-27.33,0-117.1,0-234.2,0-351.29,0-18.06,3.57-23.46,19.96-30.17,71.33,0,142.65,0,213.98,0ZM277.06,15.97h-4.58c-63.86,0-127.72,0-191.58,0-8.97,0-11.44,2.44-11.44,11.32,0,118.14,0,236.28,0,354.42,0,8.62,2.53,11.13,11.24,11.13,83.02,0,166.03,0,249.05,0,8.64,0,11.18-2.54,11.18-11.18,0-98.32,0-196.63,0-294.95v-4.46c-13.15,0-25.77-.02-38.39,0-5.75.01-11.08-1.31-15.72-4.8-6.79-5.1-9.75-12.07-9.76-20.41-.02-13.54,0-27.08,0-41.07ZM329.98,66.14c-12.46-12.93-24.36-25.28-36.89-38.28,0,10.92-.15,20.85.07,30.77.09,4.15,2.96,7.3,7.01,7.42,9.64.29,19.29.09,29.81.09Z"/>
      <path class="cls-2" d="M277.06,15.97c0,13.99-.01,27.53,0,41.07.01,8.34,2.97,15.31,9.76,20.41,4.65,3.49,9.97,4.81,15.72,4.8,12.62-.03,25.24,0,38.39,0v4.46c0,98.32,0,196.63,0,294.95,0,8.65-2.54,11.18-11.18,11.18-83.02,0-166.03,0-249.05,0-8.7,0-11.24-2.51-11.24-11.13,0-118.14,0-236.28,0-354.42,0-8.88,2.47-11.32,11.44-11.32,63.86,0,127.72,0,191.58,0h4.58ZM181.18,137.34c-.34-1.06-.81-2.86-1.5-4.58-10.04-25.16-20.14-50.3-30.15-75.47-1.54-3.89-3.7-6.91-8.23-6.9-4.53.01-6.67,3.05-8.2,6.94-5.11,12.97-10.37,25.89-15.55,38.83-4.98,12.45-9.91,24.93-14.92,37.37-1.38,3.43-1.76,6.7.83,9.72,4.12,4.8,10.99,3.3,13.71-3.14,3.1-7.34,6.15-14.71,8.82-22.21,1.11-3.11,2.71-3.94,5.81-3.8,5.58.25,11.17.07,16.76.07q6.5,0,8.93,6.07c2.77,6.9,5.46,13.84,8.39,20.67,1.74,4.05,5.27,5.79,8.98,4.92,3.66-.85,6.34-4.13,6.32-8.5ZM125.05,209.48c-3.26-3.51-6.02-6.73-9.04-9.7-4.26-4.19-8.86-4.39-12.29-.81-3.32,3.47-3.02,7.85,1.01,12.02,4.25,4.4,8.63,8.68,12.97,13,5.76,5.73,9.54,5.76,15.23.09,9.42-9.39,18.82-18.8,28.22-28.23.93-.94,1.84-1.93,2.57-3.03,2.23-3.33,1.9-7.08-.77-9.85-2.77-2.87-6.72-3.28-10.14-.91-1.3.9-2.46,2.03-3.58,3.15-7.8,7.8-15.58,15.63-24.16,24.25ZM124.92,273.49c-1.82-2.21-3.19-4.01-4.71-5.66-1.62-1.76-3.3-3.48-5.12-5.03-3.77-3.22-7.97-3.22-11.14-.17-3.28,3.15-3.46,7.69.04,11.41,5.1,5.42,10.38,10.7,15.83,15.77,3.6,3.35,7.58,3.41,11.1-.01,10.77-10.48,21.4-21.12,31.89-31.88,3.43-3.52,3.18-7.96.09-11.1-3.11-3.16-7.31-3.23-11.13-.13-1.03.84-1.95,1.81-2.88,2.75-7.69,7.72-15.38,15.44-23.95,24.06ZM125,339.69c-3.41-3.7-6.3-7.16-9.54-10.27-3.79-3.64-8.1-3.7-11.43-.6-3.53,3.29-3.48,7.94.4,12.01,4.4,4.62,8.99,9.07,13.52,13.57,5.51,5.45,9.37,5.42,14.95-.13,9.42-9.39,18.83-18.8,28.21-28.23,1.03-1.03,2.03-2.13,2.8-3.35,2.02-3.18,1.6-6.86-.95-9.52-2.65-2.77-6.52-3.31-9.8-1.17-1.43.93-2.7,2.15-3.92,3.36-7.81,7.8-15.58,15.63-24.25,24.33ZM269.47,196.42c-10.51,0-21.02-.08-31.53.03-5.18.05-8.73,3.46-8.73,7.95,0,4.35,3.42,7.9,8.33,7.92,21.02.11,42.04.08,63.06.02,3.63-.01,6.4-1.71,7.75-5.22,2.13-5.5-1.89-10.61-8.55-10.68-10.11-.1-20.22-.03-30.33-.02ZM268.67,276.26c10.51,0,21.02.08,31.53-.03,5.18-.05,8.73-3.45,8.73-7.94,0-4.35-3.42-7.9-8.32-7.92-21.02-.11-42.04-.08-63.06-.02-3.63.01-6.4,1.71-7.76,5.22-2.13,5.5,1.89,10.61,8.55,10.68,10.11.1,20.22.03,30.33.02ZM268.96,342.53c10.38,0,20.76.07,31.13-.03,5.21-.05,8.76-3.35,8.84-7.84.08-4.49-3.47-8.03-8.61-8.05-20.89-.09-41.78-.06-62.66,0-3.62,0-6.42,1.64-7.83,5.12-2.21,5.49,1.77,10.7,8.4,10.78,10.24.11,20.49.03,30.73.03ZM213.18,65.99c0-2.47.08-4.71-.02-6.95-.21-5.16-3.52-8.7-8-8.67-4.49.03-7.74,3.57-7.93,8.75-.09,2.33-.01,4.66-.01,7.16-2.84,0-5.09-.08-7.34.02-5.13.23-8.67,3.62-8.57,8.1.09,4.35,3.52,7.58,8.45,7.82,2.35.11,4.71.02,7.47.02,0,2.73-.09,5.09.02,7.44.23,4.94,3.44,8.37,7.79,8.47,4.48.11,7.89-3.43,8.12-8.55.1-2.35.02-4.7.02-7.19,6.67-.59,14.76,1.75,15.82-8.1.58-5.4-3.08-7.18-15.82-8.32ZM205.15,196.48c-4.19.03-7.9,3.8-7.87,7.97.03,4.19,3.79,7.9,7.97,7.87,4.18-.03,7.9-3.8,7.87-7.97-.03-4.19-3.8-7.9-7.97-7.87ZM205.01,276.2c4.16.12,7.99-3.53,8.11-7.73.12-4.17-3.53-7.99-7.73-8.11-4.17-.12-7.99,3.52-8.11,7.73-.12,4.18,3.52,7.99,7.73,8.11ZM213.12,334.42c-.08-4.21-3.87-7.87-8.05-7.79-4.21.09-7.87,3.87-7.79,8.05.08,4.21,3.87,7.87,8.05,7.79,4.2-.08,7.87-3.87,7.79-8.05Z"/>
      <path class="cls-2" d="M329.98,66.14c-10.52,0-20.17.2-29.81-.09-4.05-.12-6.92-3.27-7.01-7.42-.22-9.92-.07-19.85-.07-30.77,12.53,13,24.43,25.35,36.89,38.28Z"/>
      <path class="cls-1" d="M181.18,137.34c.02,4.37-2.66,7.65-6.32,8.5-3.7.86-7.23-.87-8.98-4.92-2.94-6.83-5.62-13.77-8.39-20.67q-2.44-6.07-8.93-6.07c-5.59,0-11.18.18-16.76-.07-3.1-.14-4.7.69-5.81,3.8-2.67,7.5-5.72,14.87-8.82,22.21-2.72,6.44-9.59,7.93-13.71,3.14-2.59-3.02-2.21-6.29-.83-9.72,5.01-12.44,9.94-24.92,14.92-37.37,5.18-12.95,10.44-25.86,15.55-38.83,1.53-3.89,3.67-6.92,8.2-6.94,4.53-.01,6.68,3.01,8.23,6.9,10.01,25.18,20.11,50.31,30.15,75.47.68,1.71,1.15,3.51,1.5,4.58ZM141.32,79.84c-2.69,6.76-4.92,12.35-7.25,18.19h14.52c-2.35-5.89-4.58-11.47-7.27-18.19Z"/>
      <path class="cls-1" d="M125.05,209.48c8.58-8.62,16.36-16.45,24.16-24.25,1.12-1.12,2.28-2.25,3.58-3.15,3.43-2.37,7.37-1.96,10.14.91,2.67,2.77,3,6.52.77,9.85-.73,1.09-1.64,2.09-2.57,3.03-9.39,9.42-18.79,18.84-28.22,28.23-5.69,5.67-9.47,5.63-15.23-.09-4.34-4.32-8.71-8.6-12.97-13-4.03-4.17-4.32-8.56-1.01-12.02,3.43-3.58,8.04-3.37,12.29.81,3.02,2.97,5.79,6.18,9.04,9.7Z"/>
      <path class="cls-1" d="M124.92,273.49c8.58-8.61,16.26-16.34,23.95-24.06.94-.94,1.86-1.92,2.88-2.75,3.82-3.1,8.02-3.03,11.13.13,3.09,3.14,3.34,7.58-.09,11.1-10.49,10.76-21.12,21.39-31.89,31.88-3.52,3.42-7.5,3.36-11.1.01-5.45-5.07-10.72-10.35-15.83-15.77-3.5-3.72-3.31-8.25-.04-11.41,3.17-3.05,7.37-3.05,11.14.17,1.82,1.55,3.5,3.28,5.12,5.03,1.52,1.65,2.89,3.46,4.71,5.66Z"/>
      <path class="cls-1" d="M125,339.69c8.66-8.7,16.44-16.54,24.25-24.33,1.22-1.21,2.49-2.43,3.92-3.36,3.29-2.14,7.16-1.6,9.8,1.17,2.55,2.67,2.97,6.34.95,9.52-.78,1.22-1.78,2.32-2.8,3.35-9.39,9.43-18.79,18.84-28.21,28.23-5.58,5.56-9.44,5.59-14.95.13-4.54-4.49-9.12-8.95-13.52-13.57-3.88-4.07-3.93-8.72-.4-12.01,3.32-3.1,7.63-3.03,11.43.6,3.24,3.11,6.14,6.57,9.54,10.27Z"/>
      <path class="cls-1" d="M269.47,196.42c10.11,0,20.22-.07,30.33.02,6.66.07,10.68,5.18,8.55,10.68-1.36,3.51-4.13,5.21-7.75,5.22-21.02.06-42.04.09-63.06-.02-4.9-.03-8.33-3.57-8.33-7.92,0-4.49,3.55-7.89,8.73-7.95,10.51-.11,21.02-.03,31.53-.03Z"/>
      <path class="cls-1" d="M268.67,276.26c-10.11,0-20.22.07-30.33-.02-6.66-.07-10.68-5.18-8.55-10.68,1.36-3.5,4.13-5.21,7.76-5.22,21.02-.06,42.04-.09,63.06.02,4.9.03,8.33,3.57,8.32,7.92,0,4.49-3.55,7.89-8.73,7.94-10.51.11-21.02.03-31.53.03Z"/>
      <path class="cls-1" d="M268.96,342.53c-10.24,0-20.49.08-30.73-.03-6.63-.07-10.61-5.29-8.4-10.78,1.4-3.48,4.21-5.11,7.83-5.12,20.89-.05,41.78-.08,62.66,0,5.14.02,8.69,3.57,8.61,8.05-.08,4.49-3.63,7.79-8.84,7.84-10.38.1-20.75.03-31.13.03Z"/>
      <path class="cls-1" d="M213.18,65.99c12.73,1.14,16.39,2.92,15.82,8.32-1.05,9.85-9.14,7.51-15.82,8.1,0,2.49.09,4.85-.02,7.19-.23,5.12-3.64,8.66-8.12,8.55-4.35-.11-7.56-3.53-7.79-8.47-.11-2.35-.02-4.71-.02-7.44-2.75,0-5.12.09-7.47-.02-4.93-.24-8.36-3.46-8.45-7.82-.09-4.48,3.45-7.87,8.57-8.1,2.25-.1,4.5-.02,7.34-.02,0-2.5-.07-4.84.01-7.16.19-5.18,3.44-8.72,7.93-8.75,4.48-.03,7.79,3.51,8,8.67.09,2.24.02,4.48.02,6.95Z"/>
      <path class="cls-1" d="M205.15,196.48c4.17-.03,7.94,3.68,7.97,7.87.03,4.17-3.69,7.94-7.87,7.97-4.18.03-7.94-3.68-7.97-7.87-.03-4.17,3.68-7.94,7.87-7.97Z"/>
      <path class="cls-1" d="M205.01,276.2c-4.22-.12-7.85-3.93-7.73-8.11.12-4.21,3.94-7.85,8.11-7.73,4.2.12,7.85,3.94,7.73,8.11-.12,4.21-3.94,7.85-8.11,7.73Z"/>
      <path class="cls-1" d="M213.12,334.42c.08,4.18-3.58,7.97-7.79,8.05-4.18.08-7.97-3.58-8.05-7.79-.08-4.18,3.58-7.97,7.79-8.05,4.18-.08,7.97,3.58,8.05,7.79Z"/>
      <path class="cls-2" d="M141.32,79.84c2.68,6.72,4.92,12.3,7.27,18.19h-14.52c2.33-5.84,4.56-11.43,7.25-18.19Z"/>
    </g>
  </g>
</svg>