<?xml version="1.0" encoding="UTF-8"?>
<svg id="Layer_2" data-name="Layer 2" xmlns="http://www.w3.org/2000/svg" viewBox="0 0 384 384">
  <defs>
    <style>
      .cls-1 {
        fill: #000;
      }

      .cls-1, .cls-2 {
        stroke-width: 0px;
      }

      .cls-2 {
        fill: #fff;
      }
    </style>
  </defs>
  <g id="Layer_1-2" data-name="Layer 1">
    <g>
      <path class="cls-2" d="M264.23,0c39.92,0,79.84,0,119.77,0v384H0C0,256,0,128,0,0c85.08,0,170.17,0,255.25,0-.91.33-1.81.68-2.73.97-10.66,3.44-17.29,10.59-19.42,21.61-.58,2.98-.4,6.1-.58,9.53-1.06-.57-1.8-.96-2.54-1.35-17.82-9.5-38.95,2.27-40.15,22.44-.27,4.48-.1,8.98-.1,13.47-.01,6.58,0,13.16,0,19.92-.75-.18-1.15-.18-1.43-.36-17.02-11.17-42.41,1.31-41.7,25.53.75,25.93.17,51.89.18,77.84,0,1.34,0,2.68,0,4.24-.82-.17-1.32-.2-1.75-.38-15.8-6.18-32.12-7.79-48.87-5.57-14.42,1.92-27.78,6.79-39.93,14.84-3.22,2.14-3.99,4.72-2.42,7.61,1.92,3.52,5.05,4,9.22,1.32,17.84-11.46,37.27-15.61,58.23-12.63,43.43,6.19,79.73,45.13,74.79,93.19-2.37,23.04-11.05,43.2-28.98,58.48-20.36,17.36-44.22,23.49-70.47,19.83-45.26-6.32-74.54-42.79-73.77-89.49.29-18.06,6.71-34.35,17.72-48.74.6-.79,1.57-1.74,1.48-2.51-.25-2.05-.37-4.84-1.68-5.84-1.49-1.14-4.31-1.12-6.37-.69-1.28.27-2.32,2.14-3.26,3.43-17.77,24.27-23.7,51.17-16.43,80.37,18.18,72.93,98.81,97.23,153.67,56.84,4.78-3.52,9.11-7.66,13.66-11.53,3.1,2.63,6.11,5.44,9.38,7.92,24.25,18.36,51.72,25.21,81.69,21.94,23.99-2.62,45.13-11.98,62.81-28.66,3.06-2.89,3.32-5.9.9-8.49-2.38-2.55-5.42-2.45-8.55.33-27.84,24.78-60.07,31.52-95.79,22.76-16.67-4.09-31.11-12.5-43.29-24.8.41-.67.7-1.21,1.06-1.7,32.92-44.91,18.74-112.6-29.64-140.94-1.13-.66-2.07-2.69-2.08-4.09-.15-14.59-.1-29.19-.1-43.79,0-14.35-.11-28.69.04-43.04.13-11.96,10.78-19.38,21.68-15.32,6.58,2.45,10,8.07,10.01,16.74.03,25.07,0,50.15.02,75.22,0,1.49,0,3.01.27,4.47.54,2.94,2.72,4.17,5.43,4.13,2.71-.04,4.85-1.33,5.29-4.29.24-1.59.22-3.23.22-4.85.01-42.66,0-85.33.02-127.99,0-2.11.03-4.26.35-6.34,1.04-6.8,6.88-12.16,13.73-12.79,10.07-.92,17.66,6.15,17.67,16.69.04,35.43.02,70.86.02,106.29,0,1.25-.05,2.5.04,3.74.23,3.28,2.16,4.98,5.32,5.11,3.18.13,5.21-1.53,5.75-4.7.23-1.34.11-2.74.11-4.11,0-43.79,0-87.57,0-131.36,0-1.62-.05-3.25.09-4.86.82-9.48,9.56-15.93,18.84-13.96,8.31,1.76,12.66,7.65,12.67,17.29.02,44.29,0,88.57.01,132.86,0,1.37-.09,2.76.11,4.11.51,3.39,3.54,5.45,6.83,4.66,3.62-.87,4.32-3.54,4.31-6.86-.06-22.45-.03-44.91-.03-67.36,0-13.72-.06-27.45.03-41.17.06-9.35,6.59-16.21,15.39-16.44,9.74-.26,16.39,6.85,16.4,17.69.02,56.01.01,112.03.01,168.04,0,1.21,0,2.42,0,3.73-15.27,2.09-27.61,8.73-36.95,20.54-7.59,9.6-11.59,20.55-11.57,32.86,0,3.73,1.96,5.9,5.2,6.06,3.23.16,5.44-1.84,5.95-5.42.09-.62.09-1.24.12-1.87,1.12-22.35,18.23-39.67,40.43-40.94,6.61-.38,8.05-1.87,8.05-8.5,0-24.2,0-48.4.01-72.6,0-1.74-.01-3.5.16-5.23.66-6.55,5.98-12.11,12.47-13.13,10.3-1.62,18.19,5.53,18.2,16.6.03,36.68-.07,73.35.04,110.03.06,20.13-4.2,39.05-14.57,56.46-2.1,3.52-1.43,6.58,1.58,8.45,3.02,1.87,5.8.99,8.03-2.73,8.79-14.66,14.42-30.48,15.44-47.54.85-14.17.65-28.42.7-42.63.09-27.57.11-55.14,0-82.71-.07-17.29-13.86-29.41-30.76-27.01-3.71.53-7.26,2.23-11.28,3.52,0-1.48,0-2.94,0-4.39,0-24.2.08-48.4-.03-72.6-.07-15.77-11.48-27.87-26.72-27.73-5.37.05-10.73,2.13-16.33,3.33,0-1.03.04-2.86,0-4.68-.32-11.54-7.7-21.35-18.72-24.93-1.28-.42-2.54-.89-3.81-1.34ZM32.97,281.88c.23,19.23,5.26,33.86,14.34,47.15,2.85,4.17,6.27,4.43,9.97.81,5.43-5.32,10.77-10.74,16.15-16.12,26.71-26.71,53.43-53.42,80.13-80.14,4.47-4.47,4.46-7.94-.27-11.04-24.92-16.31-51.13-19.42-77.84-5.41-27.01,14.16-40.94,37.28-42.48,64.75ZM109.74,361.76c3.1-.28,6.21-.46,9.29-.85,50.83-6.44,88.72-66.43,53.32-119.22-3.24-4.83-6.59-5.16-10.71-1.1-5.24,5.16-10.41,10.39-15.61,15.6-26.89,26.89-53.78,53.77-80.65,80.66-4.19,4.2-4.17,7.49.23,10.49,13.3,9.06,27.9,14.16,44.13,14.43Z"/>
      <path class="cls-1" d="M264.23,0c1.27.45,2.53.92,3.81,1.34,11.01,3.58,18.39,13.39,18.72,24.93.05,1.82,0,3.65,0,4.68,5.6-1.2,10.96-3.29,16.33-3.33,15.24-.13,26.65,11.97,26.72,27.73.11,24.2.03,48.4.03,72.6,0,1.46,0,2.92,0,4.39,4.02-1.29,7.57-3,11.28-3.52,16.9-2.4,30.69,9.73,30.76,27.01.11,27.57.09,55.14,0,82.71-.05,14.21.15,28.46-.7,42.63-1.02,17.06-6.65,32.88-15.44,47.54-2.23,3.72-5.01,4.6-8.03,2.73-3.01-1.87-3.68-4.92-1.58-8.45,10.37-17.41,14.63-36.33,14.57-56.46-.11-36.68-.01-73.35-.04-110.03,0-11.07-7.91-18.21-18.2-16.6-6.49,1.02-11.81,6.58-12.47,13.13-.17,1.73-.16,3.49-.16,5.23,0,24.2,0,48.4-.01,72.6,0,6.63-1.44,8.13-8.05,8.5-22.19,1.26-39.3,18.59-40.43,40.94-.03.62-.03,1.25-.12,1.87-.52,3.58-2.72,5.58-5.95,5.42-3.24-.16-5.19-2.33-5.2-6.06-.02-12.31,3.97-23.26,11.57-32.86,9.34-11.81,21.68-18.45,36.95-20.54,0-1.31,0-2.52,0-3.73,0-56.01,0-112.03-.01-168.04,0-10.83-6.65-17.94-16.4-17.69-8.8.23-15.33,7.1-15.39,16.44-.09,13.72-.03,27.44-.03,41.17,0,22.45-.03,44.91.03,67.36,0,3.32-.69,5.99-4.31,6.86-3.29.79-6.32-1.27-6.83-4.66-.2-1.35-.11-2.74-.11-4.11,0-44.29,0-88.57-.01-132.86,0-9.64-4.36-15.52-12.67-17.29-9.28-1.97-18.02,4.49-18.84,13.96-.14,1.61-.09,3.24-.09,4.86,0,43.79,0,87.57,0,131.36,0,1.37.11,2.77-.11,4.11-.54,3.17-2.56,4.83-5.75,4.7-3.16-.13-5.09-1.83-5.32-5.11-.09-1.24-.04-2.49-.04-3.74,0-35.43.02-70.86-.02-106.29-.01-10.53-7.6-17.61-17.67-16.69-6.85.63-12.69,5.99-13.73,12.79-.32,2.08-.35,4.22-.35,6.34-.02,42.66-.01,85.33-.02,127.99,0,1.62.02,3.26-.22,4.85-.44,2.96-2.58,4.25-5.29,4.29-2.71.04-4.89-1.19-5.43-4.13-.27-1.46-.27-2.98-.27-4.47-.01-25.07,0-50.15-.02-75.22-.01-8.68-3.43-14.29-10.01-16.74-10.9-4.06-21.55,3.36-21.68,15.32-.15,14.34-.04,28.69-.04,43.04,0,14.6-.06,29.19.1,43.79.01,1.4.95,3.42,2.08,4.09,48.38,28.33,62.56,96.03,29.64,140.94-.36.49-.64,1.03-1.06,1.7,12.18,12.3,26.62,20.71,43.29,24.8,35.71,8.76,67.94,2.02,95.79-22.76,3.12-2.78,6.16-2.88,8.55-.33,2.42,2.59,2.16,5.61-.9,8.49-17.68,16.68-38.83,26.05-62.81,28.66-29.97,3.27-57.44-3.58-81.69-21.94-3.27-2.48-6.28-5.29-9.38-7.92-4.55,3.86-8.88,8.01-13.66,11.53-54.87,40.39-135.49,16.09-153.67-56.84-7.28-29.2-1.35-56.1,16.43-80.37.95-1.3,1.99-3.17,3.26-3.43,2.05-.43,4.88-.44,6.37.69,1.31,1,1.43,3.79,1.68,5.84.09.77-.88,1.73-1.48,2.51-11,14.4-17.42,30.68-17.72,48.74-.76,46.7,28.51,83.17,73.77,89.49,26.25,3.66,50.11-2.47,70.47-19.83,17.93-15.28,26.62-35.44,28.98-58.48,4.93-48.06-31.37-87-74.79-93.19-20.96-2.99-40.39,1.16-58.23,12.63-4.18,2.68-7.31,2.2-9.22-1.32-1.57-2.88-.8-5.47,2.42-7.61,12.15-8.05,25.51-12.92,39.93-14.84,16.74-2.23,33.07-.61,48.87,5.57.44.17.93.2,1.75.38,0-1.56,0-2.9,0-4.24,0-25.95.58-51.91-.18-77.84-.7-24.22,24.68-36.7,41.7-25.53.28.18.67.18,1.43.36,0-6.76,0-13.34,0-19.92,0-4.49-.16-8.99.1-13.47,1.2-20.17,22.33-31.94,40.15-22.44.74.39,1.48.79,2.54,1.35.19-3.44,0-6.56.58-9.53,2.13-11.02,8.75-18.17,19.42-21.61.92-.3,1.82-.65,2.73-.97,2.99,0,5.99,0,8.98,0Z"/>
      <path class="cls-1" d="M32.97,281.88c1.55-27.47,15.47-50.58,42.48-64.75,26.7-14.01,52.92-10.9,77.84,5.41,4.73,3.1,4.74,6.57.27,11.04-26.7,26.72-53.42,53.43-80.13,80.14-5.38,5.38-10.72,10.79-16.15,16.12-3.7,3.62-7.12,3.36-9.97-.81-9.08-13.29-14.11-27.92-14.34-47.15ZM141.55,228.55c-23.88-14.5-57.68-11.59-80.13,13.16-21.01,23.16-21.34,54.83-8.17,75.13,29.4-29.4,58.89-58.88,88.3-88.29Z"/>
      <path class="cls-1" d="M109.74,361.76c-16.23-.26-30.83-5.37-44.13-14.43-4.4-3-4.42-6.3-.23-10.49,26.88-26.89,53.77-53.77,80.65-80.66,5.2-5.2,10.37-10.43,15.61-15.6,4.12-4.06,7.47-3.73,10.71,1.1,35.4,52.79-2.49,112.78-53.32,119.22-3.08.39-6.2.57-9.29.85ZM77.37,341.29c24.76,15.11,58.42,11.41,80.53-13.01,21.22-23.44,20.96-55.49,7.82-75.38-29.39,29.4-58.81,58.83-88.35,88.39Z"/>
      <path class="cls-2" d="M141.55,228.55c-29.42,29.41-58.9,58.89-88.3,88.29-13.16-20.3-12.84-51.97,8.17-75.13,22.45-24.75,56.26-27.67,80.13-13.16Z"/>
      <path class="cls-2" d="M77.37,341.29c29.54-29.56,58.96-58.98,88.35-88.39,13.14,19.9,13.4,51.94-7.82,75.38-22.11,24.42-55.77,28.11-80.53,13.01Z"/>
    </g>
  </g>
</svg>