<?xml version="1.0" encoding="UTF-8"?>
<svg id="Layer_2" data-name="Layer 2" xmlns="http://www.w3.org/2000/svg" viewBox="0 0 384 384">
  <defs>
    <style>
      .cls-1 {
        fill: #000;
      }

      .cls-1, .cls-2 {
        stroke-width: 0px;
      }

      .cls-2 {
        fill: #fff;
      }
    </style>
  </defs>
  <g id="Layer_1-2" data-name="Layer 1">
    <g>
      <path class="cls-2" d="M0,0c128,0,256,0,384,0,0,128,0,256,0,384-128,0-256,0-384,0C0,256,0,128,0,0ZM174.15,66.62c-1.36,0-2.68,0-3.99,0-37.05,0-74.1-.11-111.15.07-20.1.09-37.69,13.05-44.35,32.09-6.63,18.93-.7,39.96,14.86,52.71.73.6,1.38,1.28,2.04,1.9-.31.43-.41.67-.59.82-6.16,5.34-8.61,11.99-5.99,19.79,2.6,7.73,8.39,11.71,16.55,12.51,1.09.11,2.56,1.7,2.95,2.9,4.47,13.81,4.38,27.68.24,41.58-.69,2.32-1.66,3.28-4.31,3.46-9.58.64-16.71,8.86-16.43,18.43.27,9.31,7.87,16.93,17.3,17.31,1.92.08,3.84.01,6.56.01-1.54,1.35-2.37,2.05-3.17,2.79-17.83,16.5-24.6,36.68-18.6,60.28,6.89,27.14,30.35,44.69,58.71,44.72,62,.06,124,.02,186,.02,23.58,0,47.16.07,70.73-.04,9.69-.05,17.44-7.74,17.78-17.2.34-9.72-6.88-17.95-16.7-18.56-2.58-.16-3.36-1.27-3.99-3.35-4.13-13.63-4.18-27.23-.19-40.9.74-2.53,1.69-3.75,4.71-3.97,9.54-.7,16.58-9.11,16.17-18.66-.4-9.29-8.09-16.78-17.55-17.06-1.81-.05-3.63,0-6.29,0,15.86-13.11,24.11-29.15,23.77-48.96-.34-19.94-9.3-35.73-25.24-47.99,1.6-.48,2.68-.78,3.75-1.12,19.15-6.03,32.65-23.72,33.43-43.82,1.05-27.07-20.42-49.51-47.85-49.7-24.82-.17-49.65-.04-74.48-.05-1.25,0-2.49-.1-3.54-.15,6.02-3.36,12.18-6.37,17.9-10.07,10.29-6.65,14.52-19.24,10.48-30.86-3.67-10.57-11.24-17.11-22.31-18.61-11.33-1.53-21.1,2.29-26.77,12.45-5.2,9.3-9.02,19.38-13.44,29.12-.46,1.01-.87,2.04-1.63,3.82-1.03-2.71-1.6-4.5-2.38-6.18-4.28-9.25-8.1-18.77-13.08-27.64-5.14-9.14-16.83-13.52-27.26-11.52-11.17,2.14-20,10.78-22.18,21.7-2.14,10.76,2,21.64,11.02,27.44,5.9,3.8,12.22,6.96,18.53,10.51Z"/>
      <path class="cls-1" d="M174.15,66.62c-6.31-3.55-12.62-6.71-18.53-10.51-9.01-5.8-13.16-16.68-11.02-27.44,2.17-10.92,11-19.56,22.18-21.7,10.43-2,22.12,2.38,27.26,11.52,4.99,8.86,8.8,18.38,13.08,27.64.78,1.68,1.34,3.47,2.38,6.18.76-1.78,1.17-2.81,1.63-3.82,4.42-9.74,8.24-19.81,13.44-29.12,5.67-10.16,15.45-13.98,26.77-12.45,11.07,1.49,18.64,8.03,22.31,18.61,4.03,11.63-.19,24.21-10.48,30.86-5.72,3.7-11.88,6.71-17.9,10.07,1.04.05,2.29.15,3.54.15,24.83.01,49.65-.13,74.48.05,27.43.19,48.9,22.63,47.85,49.7-.78,20.1-14.28,37.79-33.43,43.82-1.07.34-2.14.64-3.75,1.12,15.95,12.26,24.9,28.06,25.24,47.99.34,19.81-7.92,35.85-23.77,48.96,2.66,0,4.47-.05,6.29,0,9.47.29,17.15,7.77,17.55,17.06.41,9.55-6.63,17.96-16.17,18.66-3.02.22-3.97,1.44-4.71,3.97-3.99,13.67-3.94,27.28.19,40.9.63,2.09,1.41,3.19,3.99,3.35,9.82.61,17.04,8.84,16.7,18.56-.33,9.45-8.08,17.15-17.78,17.2-23.58.11-47.16.04-70.73.04-62,0-124,.04-186-.02-28.36-.03-51.82-17.58-58.71-44.72-5.99-23.6.77-43.78,18.6-60.28.8-.74,1.64-1.44,3.17-2.79-2.72,0-4.64.07-6.56-.01-9.43-.38-17.03-8-17.3-17.31-.28-9.57,6.85-17.79,16.43-18.43,2.66-.18,3.62-1.14,4.31-3.46,4.15-13.9,4.23-27.77-.24-41.58-.39-1.2-1.85-2.79-2.95-2.9-8.16-.8-13.95-4.78-16.55-12.51-2.62-7.8-.17-14.45,5.99-19.79.18-.15.28-.39.59-.82-.66-.62-1.32-1.3-2.04-1.9-15.55-12.75-21.49-33.78-14.86-52.71,6.67-19.04,24.25-32,44.35-32.09,37.05-.17,74.1-.06,111.15-.07,1.31,0,2.62,0,3.99,0ZM326.97,294.18h-4.47c-78.8,0-157.6,0-236.4,0-1.25,0-2.5-.02-3.74.05-12.27.69-22.21,11-22.46,23.27-.29,14.05,10.51,24.57,25.32,24.58,79.3.02,158.6,0,237.9,0,1.18,0,2.37-.1,3.85-.17-4.77-16.01-4.67-31.74,0-47.73ZM56.27,186.52c4.78,16.1,4.67,31.82,0,47.77h4.16c78.92,0,157.85,0,236.77,0,1.25,0,2.5.02,3.74-.05,12.28-.74,22.18-11.06,22.41-23.34.26-13.63-10.35-24.48-24.26-24.49-80.05-.05-160.09-.02-240.14-.02-.74,0-1.48.07-2.68.13ZM210.78,270.22c-41.78,0-83.57-.03-125.35.05-3.96,0-8.02.28-11.87,1.14-23.88,5.33-40.12,27.73-37.46,51.37,2.8,24.88,22.89,43.21,47.79,43.23,85.19.07,170.37.03,255.56.03,5.04,0,7.83-2.17,7.83-5.99,0-3.83-2.78-5.95-7.84-5.98-.87,0-1.75,0-2.62,0-83.19,0-166.38,0-249.57,0-1.62,0-3.24.01-4.86-.05-22.68-.8-39.05-22.77-33.34-44.74,4.29-16.52,18.37-27.06,36.3-27.07,84.19-.02,168.38,0,252.57,0,1.25,0,2.5.07,3.74-.05,3.31-.33,5.61-2.79,5.63-5.9.02-3.12-2.26-5.62-5.55-5.97-1.23-.13-2.49-.06-3.74-.06-42.41,0-84.81,0-127.22,0ZM172.5,162.43c-42.9,0-85.81,0-128.71,0-5.06,0-7.82,2.15-7.82,5.99,0,3.83,2.78,5.95,7.84,5.98.87,0,1.75,0,2.62,0,64.36,0,128.71,0,193.07,0,20.33,0,40.66-.24,60.99.09,24.16.4,40.78,24.72,32.84,47.54-5.24,15.05-18.58,24.22-35.42,24.22-84.69.01-169.37,0-254.06.01-5.08,0-7.84,2.11-7.87,5.94-.03,3.85,2.74,6,7.78,6.04.87,0,1.75,0,2.62,0,56.62,0,113.25,0,169.87,0,28.06,0,56.13.16,84.19-.07,25.49-.2,46.53-21.45,46.88-46.89.37-26.99-20.9-48.77-47.97-48.83-42.28-.1-84.56-.03-126.84-.03ZM92.2,150.39c28.15,0,55.82.32,83.48-.11,18.28-.29,33.34-16.14,33.87-34.42.6-20.55-15.32-37.12-36.06-37.23-26.05-.13-52.1-.03-78.15-.04-.94,0-1.88,0-3.11,0,21.03,28.29,21.03,44.54-.03,71.8ZM247.5,78.76c10.52,10.2,15.95,21.89,15.95,35.83,0,13.97-5.6,25.67-15.93,35.76,26.84,0,52.88.57,78.89-.2,17.98-.53,32.29-16.37,32.85-34.2.64-20.41-15.15-37.15-35.59-37.31-24.55-.19-49.11-.05-73.66-.05-.58,0-1.17.07-2.5.15ZM94.9,108.54c-1.33-16.42-18.95-30.68-36.37-29.72-20.13,1.11-35.21,17.41-34.53,37.32.57,16.59,15.49,33.31,29.9,33.23,0-4.23.29-8.48-.05-12.68-1.65-20.59,8.05-29.79,28-28.2,4.32.35,8.69.05,13.05.05ZM205.95,150.21c20.33,1.69,34.41-5.01,41.73-19.58,6.57-13.1,4.54-28.88-5.12-39.76-8.84-9.95-25.8-15.36-36.31-11.57,19.41,18.5,21.46,49.5-.29,70.91ZM218.69,63.01c2.96-1.04,5.11-1.66,7.15-2.55,10.13-4.41,20.39-8.56,30.28-13.47,5.54-2.75,7.76-9.52,6.53-15.86-1.16-5.95-6.09-10.83-12.3-12.15-5.91-1.26-12.5,1.19-15.64,6.36-6.99,11.54-11.17,24.3-16.03,37.66ZM199.45,63.44c.29-.4.58-.8.87-1.2-4.88-12.82-8.81-26.09-16.46-37.66-3.44-5.21-9.12-6.75-15.24-5.5-6.24,1.27-11.16,6.3-12.07,12.31-.97,6.42.56,12.54,6.47,15.51,11.91,5.99,24.26,11.09,36.43,16.55ZM65.94,149.56c13.94-1.22,28.43-15.8,28.86-29-7.22,0-14.44-.15-21.65.06-3.83.11-7.01,3.15-7.14,6.94-.25,7.32-.07,14.65-.07,22Z"/>
      <path class="cls-2" d="M326.97,294.18c-4.68,15.99-4.78,31.72,0,47.73-1.48.07-2.66.17-3.85.17-79.3,0-158.6.01-237.9,0-14.82,0-25.61-10.53-25.32-24.58.25-12.28,10.2-22.59,22.46-23.27,1.24-.07,2.49-.05,3.74-.05,78.8,0,157.6,0,236.4,0h4.47Z"/>
      <path class="cls-2" d="M56.27,186.52c1.2-.06,1.94-.13,2.68-.13,80.05,0,160.09-.03,240.14.02,13.91,0,24.52,10.86,24.26,24.49-.23,12.28-10.13,22.6-22.41,23.34-1.24.07-2.49.05-3.74.05-78.92,0-157.85,0-236.77,0h-4.16c4.66-15.96,4.77-31.67,0-47.77Z"/>
      <path class="cls-2" d="M210.78,270.22c42.41,0,84.81,0,127.22,0,1.25,0,2.5-.08,3.74.06,3.29.35,5.57,2.85,5.55,5.97-.02,3.11-2.32,5.56-5.63,5.9-1.24.12-2.49.05-3.74.05-84.19,0-168.38,0-252.57,0-17.93,0-32.01,10.55-36.3,27.07-5.7,21.97,10.66,43.94,33.34,44.74,1.62.06,3.24.05,4.86.05,83.19,0,166.38,0,249.57,0,.87,0,1.75,0,2.62,0,5.06.03,7.83,2.15,7.84,5.98,0,3.82-2.79,5.99-7.83,5.99-85.19,0-170.37.05-255.56-.03-24.9-.02-44.99-18.36-47.79-43.23-2.66-23.64,13.57-46.04,37.46-51.37,3.85-.86,7.91-1.13,11.87-1.14,41.78-.08,83.57-.05,125.35-.05Z"/>
      <path class="cls-2" d="M172.5,162.43c42.28,0,84.56-.07,126.84.03,27.07.06,48.34,21.84,47.97,48.83-.35,25.44-21.39,46.69-46.88,46.89-28.06.22-56.13.07-84.19.07-56.62,0-113.25,0-169.87,0-.87,0-1.75,0-2.62,0-5.04-.03-7.82-2.19-7.78-6.04.03-3.83,2.79-5.94,7.87-5.94,84.69,0,169.37,0,254.06-.01,16.85,0,30.19-9.17,35.42-24.22,7.93-22.82-8.69-47.14-32.84-47.54-20.32-.34-40.66-.09-60.99-.09-64.36,0-128.71,0-193.07,0-.87,0-1.75,0-2.62,0-5.05-.03-7.83-2.15-7.84-5.98,0-3.84,2.76-5.99,7.82-5.99,42.9,0,85.81,0,128.71,0Z"/>
      <path class="cls-2" d="M92.2,150.39c21.05-27.25,21.06-43.51.03-71.8,1.23,0,2.17,0,3.11,0,26.05,0,52.1-.1,78.15.04,20.74.11,36.66,16.68,36.06,37.23-.53,18.28-15.59,34.13-33.87,34.42-27.66.44-55.33.11-83.48.11Z"/>
      <path class="cls-2" d="M247.5,78.76c1.34-.09,1.92-.15,2.5-.15,24.55,0,49.11-.14,73.66.05,20.44.16,36.22,16.9,35.59,37.31-.56,17.83-14.86,33.67-32.85,34.2-26.01.77-52.05.2-78.89.2,10.32-10.09,15.93-21.79,15.93-35.76,0-13.94-5.43-25.63-15.95-35.83Z"/>
      <path class="cls-2" d="M94.9,108.54c-4.37,0-8.74.29-13.05-.05-19.95-1.6-29.65,7.6-28,28.2.34,4.2.05,8.45.05,12.68-14.41.08-29.33-16.64-29.9-33.23-.68-19.91,14.4-36.21,34.53-37.32,17.42-.96,35.04,13.3,36.37,29.72Z"/>
      <path class="cls-2" d="M205.95,150.21c21.75-21.41,19.7-52.41.29-70.91,10.51-3.79,27.48,1.62,36.31,11.57,9.66,10.88,11.69,26.66,5.12,39.76-7.31,14.58-21.4,21.27-41.73,19.58Z"/>
      <path class="cls-2" d="M218.69,63.01c4.86-13.36,9.04-26.12,16.03-37.66,3.13-5.17,9.72-7.62,15.64-6.36,6.2,1.32,11.14,6.2,12.3,12.15,1.23,6.34-.99,13.11-6.53,15.86-9.89,4.9-20.15,9.06-30.28,13.47-2.04.89-4.2,1.5-7.15,2.55Z"/>
      <path class="cls-2" d="M199.45,63.44c-12.17-5.47-24.52-10.57-36.43-16.55-5.91-2.97-7.44-9.09-6.47-15.51.91-6,5.84-11.04,12.07-12.31,6.12-1.24,11.8.3,15.24,5.5,7.65,11.57,11.58,24.84,16.46,37.66-.29.4-.58.8-.87,1.2Z"/>
      <path class="cls-2" d="M65.94,149.56c0-7.35-.18-14.68.07-22,.13-3.79,3.31-6.83,7.14-6.94,7.21-.21,14.43-.06,21.65-.06-.43,13.2-14.93,27.78-28.86,29Z"/>
    </g>
  </g>
</svg>