<?xml version="1.0" encoding="UTF-8"?>
<svg id="Layer_2" data-name="Layer 2" xmlns="http://www.w3.org/2000/svg" viewBox="0 0 384 384">
  <defs>
    <style>
      .cls-1 {
        fill: #000;
      }

      .cls-1, .cls-2 {
        stroke-width: 0px;
      }

      .cls-2 {
        fill: #fff;
      }
    </style>
  </defs>
  <g id="Layer_1-2" data-name="Layer 1">
    <g>
      <path class="cls-2" d="M384,384H0V0h384v384ZM94.35,55.99c-1.78,0-3.13,0-4.48,0-19.84,0-39.67,0-59.51,0-5.16,0-5.93.74-5.93,5.8,0,102.44,0,204.89,0,307.33,0,5.09.82,5.9,5.84,5.9,84.21,0,168.42,0,252.63,0,4.88,0,5.93-1.04,5.93-5.9.02-12.6,0-25.21,0-37.81,0-1.31,0-2.62,0-4.15h4.66c19.59,0,39.17,0,58.76,0,5.89,0,6.5-.59,6.5-6.36,0-102.07,0-204.14,0-306.2,0-5.85-.62-6.46-6.41-6.46-83.84,0-167.67,0-251.51,0-5.65,0-6.49.83-6.5,6.47,0,13.6,0,27.19,0,41.39Z"/>
      <path class="cls-1" d="M94.35,55.99c0-14.2,0-27.79,0-41.39,0-5.64.84-6.47,6.5-6.47,83.84,0,167.67,0,251.51,0,5.79,0,6.41.61,6.41,6.46,0,102.07,0,204.14,0,306.2,0,5.78-.61,6.36-6.5,6.36-19.59,0-39.17,0-58.76,0h-4.66c0,1.53,0,2.84,0,4.15,0,12.6.01,25.21,0,37.81,0,4.86-1.06,5.9-5.93,5.9-84.21,0-168.42,0-252.63,0-5.03,0-5.84-.81-5.84-5.9,0-102.44,0-204.88,0-307.33,0-5.06.77-5.79,5.93-5.8,19.84-.01,39.67,0,59.51,0,1.35,0,2.69,0,4.48,0ZM281.08,367.36V63.78H32.12v303.58h248.96ZM130.58,15.8c0,.14-.01.28-.02.42.93.27,1.86.58,2.8.82,49.7,12.72,99.39,25.44,149.09,38.17,6.4,1.64,6.4,1.67,6.4,8.34,0,83.71,0,167.42,0,251.12v4.8h62.23V15.8h-220.49ZM252.56,55.84c.04-.19.09-.38.13-.57-50.14-12.83-100.29-25.67-150.59-38.54v39.11h150.46Z"/>
      <path class="cls-2" d="M281.08,367.36H32.12V63.78h248.96v303.58ZM84.67,224.66c-6.23,0-12.46-.05-18.69.01-7.8.08-12.6,4.8-12.68,12.6-.09,8.97-.09,17.95,0,26.92.08,7.45,4.69,12.34,12.05,12.44,12.83.17,25.67.17,38.51,0,7.43-.1,12.03-4.98,12.08-12.37.06-8.97.05-17.95,0-26.92-.04-7.78-4.79-12.57-12.58-12.66-6.23-.07-12.46-.01-18.69-.01ZM84.8,346.99c6.36,0,12.71.11,19.07-.03,7.38-.16,12.03-4.95,12.08-12.35.06-8.97.05-17.95,0-26.92-.04-7.76-4.81-12.61-12.58-12.66-12.46-.08-24.92-.07-37.39,0-7.8.05-12.6,4.83-12.68,12.6-.09,8.85-.07,17.7,0,26.55.06,8.06,4.74,12.73,12.81,12.81,6.23.07,12.46.01,18.69,0ZM84.57,206.3c6.36,0,12.71.08,19.07-.02,7.56-.12,12.27-4.92,12.31-12.52.05-8.85.04-17.7,0-26.55-.03-8.07-4.72-12.84-12.73-12.87-12.34-.05-24.68-.04-37.01,0-8.08.03-12.85,4.7-12.91,12.72-.08,8.85-.08,17.7,0,26.55.07,7.96,4.88,12.63,12.95,12.69,6.11.05,12.21,0,18.32,0ZM84.82,83.95c-6.36,0-12.71-.08-19.07.02-7.59.12-12.36,4.87-12.44,12.45-.1,8.97-.09,17.95,0,26.92.07,7.79,4.84,12.57,12.66,12.62,12.46.08,24.93.09,37.39,0,7.84-.06,12.56-4.86,12.6-12.64.05-8.85.04-17.7,0-26.55-.03-8.01-4.73-12.72-12.81-12.81-6.11-.07-12.21-.01-18.32-.01ZM194.59,192.27c-20.33,0-40.67.01-61-.01-2.69,0-4.89.68-4.83,3.8.05,2.84,2.12,3.69,4.65,3.69.62,0,1.25,0,1.87,0,39.3,0,78.59,0,117.89,0,1.24,0,2.53.08,3.72-.21,2.46-.62,3.91-3.5,2.33-5.17-1.15-1.22-3.37-2-5.12-2.01-19.83-.14-39.67-.09-59.5-.09ZM194.42,333.01c-20.33,0-40.67.01-61-.01-2.55,0-4.6.69-4.67,3.58-.07,2.84,1.91,3.81,4.46,3.91.75.03,1.5,0,2.25,0,39.17,0,78.34,0,117.51-.01,1.36,0,3.05.31,4.01-.36,1.22-.86,2.52-2.55,2.53-3.9,0-1.05-1.76-2.37-3.01-3.07-.86-.49-2.19-.14-3.32-.14-19.58,0-39.17,0-58.75,0ZM193.83,98.04c19.84,0,39.67,0,59.51,0,1.12,0,2.48.33,3.31-.18,1.23-.76,2.92-2.17,2.87-3.24-.06-1.34-1.47-2.86-2.68-3.82-.71-.56-2.16-.24-3.28-.24-39.55,0-79.09,0-118.64,0-1.12,0-2.57-.33-3.28.23-1.22.95-2.65,2.46-2.72,3.8-.05,1.07,1.63,2.49,2.85,3.26.82.51,2.18.19,3.31.19,19.59,0,39.17,0,58.76,0ZM194.6,106.22c-19.71,0-39.42,0-59.13,0-.87,0-1.75-.02-2.62.01-2.47.08-4.16,1.21-4.1,3.82.06,2.61,1.83,3.63,4.28,3.65.62,0,1.25,0,1.87,0,39.55,0,79.09,0,118.64,0,.87,0,2,.32,2.57-.1,1.35-.99,3.15-2.18,3.46-3.59.51-2.27-1.29-3.57-3.59-3.77-.99-.08-1.99-.03-2.99-.03-19.46,0-38.92,0-58.38,0ZM193.84,184.06c3.24,0,6.49,0,9.73,0,16.59,0,33.18,0,49.78,0,2.9,0,6.37.36,6.29-3.83-.08-4.19-3.62-3.65-6.46-3.65-39.3,0-78.59,0-117.89,0-.87,0-1.98-.33-2.57.08-1.46,1-3.52,2.17-3.82,3.59-.53,2.47,1.48,3.7,3.94,3.8.87.03,1.75.01,2.62.01,19.46,0,38.92,0,58.38,0ZM193.83,238.75c19.96,0,39.92,0,59.88,0,2.85,0,6.01.11,5.93-3.81-.07-3.9-3.28-3.71-6.09-3.68-.12,0-.25,0-.37,0-39.3,0-78.59,0-117.89,0-1.24,0-2.8-.35-3.66.25-1.24.88-2.65,2.45-2.71,3.78-.05,1.08,1.63,2.5,2.85,3.28.82.51,2.18.17,3.31.17,19.59,0,39.17,0,58.76,0ZM194.6,246.96c-19.96,0-39.92,0-59.88,0-2.84,0-6.02-.13-5.92,3.81.09,3.88,3.29,3.72,6.1,3.68.12,0,.25,0,.37,0,39.3,0,78.59,0,117.89,0,1.12,0,2.57.39,3.29-.16,1.32-.99,2.93-2.5,3.04-3.9.08-1.04-1.89-2.44-3.2-3.3-.71-.46-1.94-.12-2.94-.12-19.59,0-39.17,0-58.76,0ZM194.59,317.32c-19.71,0-39.42,0-59.13,0-1.12,0-2.48-.36-3.31.14-1.33.79-3.29,2.25-3.2,3.28.12,1.41,1.75,2.86,3.04,3.92.61.5,1.93.15,2.92.15,39.54,0,79.09,0,118.63,0,1,0,2.32.35,2.92-.15,1.29-1.06,2.92-2.52,3.03-3.93.08-1.03-1.88-2.48-3.21-3.27-.84-.5-2.19-.14-3.31-.14-19.46,0-38.92,0-58.38,0ZM220.43,262.62c-11.58,0-23.17.02-34.75-.02-2.43,0-4.58.34-5.18,3.13-.55,2.57,1.51,4.36,5.09,4.36,22.92.02,45.84,0,68.76.02,2.71,0,5.27-.42,5.33-3.75.06-3.41-2.52-3.77-5.24-3.76-11.34.03-22.67.01-34.01.01ZM219.98,129.37c11.71,0,23.42,0,35.13,0,2.56,0,4.55-.9,4.58-3.73.03-2.86-1.94-3.76-4.51-3.76-23.42,0-46.83-.01-70.25.06-1.14,0-2.67.41-3.31,1.21-.73.9-1.3,3.01-.79,3.58,1.08,1.23,2.89,2.5,4.42,2.53,11.58.2,23.17.11,34.75.11ZM219.67,168.39c11.71,0,23.42-.02,35.13.01,2.67,0,4.91-.67,4.88-3.77-.03-3.09-2.29-3.74-4.94-3.74-23.05.02-46.09,0-69.14,0-.25,0-.5,0-.75,0-2.45,0-4.27,1.07-4.35,3.6-.08,2.76,1.78,3.88,4.41,3.88,11.58,0,23.17,0,34.75,0ZM220.42,301.65c-11.46,0-22.92.03-34.38-.02-2.87-.01-5.61.37-5.51,3.91.09,3.26,2.73,3.62,5.45,3.62,22.8-.03,45.59-.03,68.39,0,2.72,0,5.28-.38,5.31-3.73.03-3.36-2.5-3.79-5.24-3.78-11.34.04-22.67.02-34.01.01ZM146.35,270.1c4.6,0,9.2.02,13.79,0,2.61-.02,4.47-1.22,4.37-3.96-.1-2.54-1.94-3.52-4.39-3.51-8.95.02-17.9.02-26.84,0-2.56,0-4.55.85-4.52,3.72.02,2.83,2.01,3.76,4.55,3.76,4.35.01,8.7,0,13.05,0ZM146.81,121.89c-4.35,0-8.7.03-13.05-.01-2.62-.03-4.94.53-4.99,3.64-.06,3.06,2.12,3.87,4.8,3.86,8.7-.02,17.4-.03,26.1,0,2.71.01,4.89-.88,4.83-3.86-.06-3.02-2.36-3.69-5.01-3.65-4.22.06-8.45.02-12.68.02ZM146.67,168.39c4.35,0,8.7-.04,13.05.01,2.73.03,4.86-.89,4.78-3.89-.08-2.74-2.13-3.63-4.7-3.62-8.82.03-17.65.02-26.47,0-2.55,0-4.54.9-4.57,3.72-.03,2.83,1.91,3.78,4.49,3.77,4.47-.02,8.95,0,13.42,0ZM146.98,301.65c-4.47,0-8.95.03-13.42-.01-2.69-.02-4.84.77-4.8,3.85.04,2.83,2.08,3.66,4.63,3.66,8.82-.02,17.65-.02,26.47,0,2.58,0,4.61-.93,4.64-3.68.03-2.99-2.12-3.87-4.84-3.83-4.23.06-8.45.02-12.68.02Z"/>
      <path class="cls-2" d="M130.58,15.8h220.49v303.67h-62.23v-4.8c0-83.71,0-167.42,0-251.12,0-6.67,0-6.7-6.4-8.34-49.69-12.73-99.39-25.44-149.09-38.17-.94-.24-1.87-.54-2.8-.82,0-.14.01-.28.02-.42Z"/>
      <path class="cls-2" d="M252.56,55.84H102.1V16.74c50.31,12.87,100.45,25.71,150.59,38.54-.04.19-.09.38-.13.57Z"/>
      <path class="cls-1" d="M84.67,224.66c6.23,0,12.46-.06,18.69.01,7.79.09,12.54,4.88,12.58,12.66.05,8.97.06,17.95,0,26.92-.05,7.39-4.65,12.28-12.08,12.37-12.83.17-25.67.17-38.51,0-7.37-.1-11.97-4.98-12.05-12.44-.1-8.97-.09-17.95,0-26.92.08-7.79,4.88-12.52,12.68-12.6,6.23-.06,12.46-.01,18.69-.01ZM84.68,269.2c5.98,0,11.96.04,17.94-.01,4.53-.04,5.83-1.33,5.84-5.76.03-8.47.03-16.94,0-25.41-.02-4.48-1.32-5.84-5.74-5.85-12.08-.04-24.16-.04-36.24,0-4.26.01-5.66,1.38-5.69,5.56-.06,8.59-.06,17.19,0,25.79.03,4.27,1.36,5.62,5.6,5.67,6.1.07,12.21.02,18.31.02Z"/>
      <path class="cls-1" d="M84.8,346.99c-6.23,0-12.46.06-18.69-.01-8.07-.08-12.75-4.75-12.81-12.81-.07-8.85-.08-17.7,0-26.55.08-7.77,4.88-12.55,12.68-12.6,12.46-.07,24.92-.08,37.39,0,7.78.05,12.54,4.9,12.58,12.66.05,8.97.06,17.95,0,26.92-.05,7.4-4.7,12.19-12.08,12.35-6.35.14-12.71.03-19.07.03ZM84.64,339.51c5.85,0,11.71.02,17.56,0,5.09-.02,6.25-1.15,6.26-6.06.02-8.35.02-16.69,0-25.04-.01-4.48-1.33-5.88-5.71-5.9-12.08-.04-24.16-.04-36.24,0-4.37.01-5.72,1.41-5.74,5.91-.04,8.47-.05,16.94,0,25.41.03,4.31,1.32,5.62,5.56,5.67,6.1.06,12.2.02,18.31.02Z"/>
      <path class="cls-1" d="M84.57,206.3c-6.11,0-12.21.04-18.32,0-8.08-.06-12.88-4.73-12.95-12.69-.08-8.85-.08-17.7,0-26.55.07-8.02,4.83-12.69,12.91-12.72,12.34-.04,24.68-.05,37.01,0,8.01.03,12.7,4.8,12.73,12.87.03,8.85.05,17.7,0,26.55-.04,7.6-4.75,12.4-12.31,12.52-6.35.1-12.71.02-19.07.02ZM84.63,161.82c-5.98,0-11.96-.03-17.93,0-4.55.03-5.89,1.29-5.92,5.7-.05,8.59-.06,17.19,0,25.78.03,4.05,1.39,5.46,5.38,5.48,12.33.06,24.66.06,36.99,0,3.98-.02,5.3-1.44,5.31-5.5.04-8.59.04-17.19,0-25.78-.02-4.4-1.33-5.65-5.9-5.68-5.98-.04-11.96,0-17.93,0Z"/>
      <path class="cls-1" d="M84.82,83.94c6.11,0,12.21-.06,18.32.01,8.08.09,12.78,4.8,12.81,12.81.04,8.85.04,17.7,0,26.55-.04,7.78-4.76,12.58-12.6,12.64-12.46.09-24.93.08-37.39,0-7.82-.05-12.58-4.83-12.66-12.62-.09-8.97-.1-17.95,0-26.92.09-7.58,4.86-12.33,12.44-12.45,6.35-.1,12.71-.02,19.07-.02ZM84.92,128.49c6.1,0,12.21.06,18.31-.02,3.79-.05,5.2-1.49,5.22-5.24.06-8.84.06-17.69,0-26.53-.02-3.76-1.43-5.21-5.22-5.23-12.33-.07-24.66-.06-36.99,0-4.02.02-5.42,1.43-5.45,5.43-.07,8.72-.07,17.44,0,26.16.03,4,1.44,5.38,5.45,5.43,6.23.07,12.45.02,18.68.02Z"/>
      <path class="cls-1" d="M194.59,192.27c19.83,0,39.67-.05,59.5.09,1.75.01,3.97.79,5.12,2.01,1.58,1.67.13,4.55-2.33,5.17-1.18.3-2.47.21-3.72.21-39.3,0-78.59,0-117.89,0-.62,0-1.25,0-1.87,0-2.53,0-4.6-.85-4.65-3.69-.06-3.12,2.14-3.81,4.83-3.8,20.33.03,40.67.01,61,.01Z"/>
      <path class="cls-1" d="M194.42,333c19.58,0,39.17,0,58.75,0,1.12,0,2.46-.34,3.32.14,1.25.71,3.02,2.03,3.01,3.07-.01,1.34-1.31,3.04-2.53,3.9-.96.67-2.65.36-4.01.36-39.17.01-78.34.01-117.51.01-.75,0-1.5.02-2.25,0-2.54-.09-4.52-1.06-4.46-3.91.07-2.89,2.12-3.59,4.67-3.58,20.33.03,40.67.01,61,.01Z"/>
      <path class="cls-1" d="M193.83,98.04c-19.59,0-39.17,0-58.76,0-1.12,0-2.49.33-3.31-.19-1.22-.77-2.91-2.19-2.85-3.26.07-1.34,1.5-2.85,2.72-3.8.72-.56,2.16-.23,3.28-.23,39.55,0,79.09,0,118.64,0,1.12,0,2.57-.33,3.28.24,1.21.96,2.63,2.48,2.68,3.82.04,1.07-1.65,2.48-2.87,3.24-.82.51-2.19.18-3.31.18-19.84,0-39.67,0-59.51,0Z"/>
      <path class="cls-1" d="M194.6,106.22c19.46,0,38.92,0,58.38,0,1,0,2-.05,2.99.03,2.31.2,4.1,1.5,3.59,3.77-.31,1.4-2.11,2.59-3.46,3.59-.57.42-1.7.1-2.57.1-39.55,0-79.09,0-118.64,0-.62,0-1.25,0-1.87,0-2.45-.03-4.22-1.04-4.28-3.65-.06-2.61,1.62-3.74,4.1-3.82.87-.03,1.75-.01,2.62-.01,19.71,0,39.42,0,59.13,0Z"/>
      <path class="cls-1" d="M193.84,184.06c-19.46,0-38.92,0-58.38,0-.87,0-1.75.02-2.62-.01-2.47-.09-4.47-1.33-3.94-3.8.3-1.42,2.36-2.59,3.82-3.59.6-.41,1.7-.08,2.57-.08,39.3,0,78.59,0,117.89,0,2.84,0,6.38-.54,6.46,3.65.08,4.18-3.39,3.83-6.29,3.83-16.59,0-33.18,0-49.78,0-3.24,0-6.49,0-9.73,0Z"/>
      <path class="cls-1" d="M193.83,238.75c-19.59,0-39.17,0-58.76,0-1.12,0-2.49.34-3.31-.17-1.23-.77-2.9-2.2-2.85-3.28.06-1.33,1.47-2.9,2.71-3.78.85-.6,2.41-.25,3.66-.25,39.3,0,78.59,0,117.89,0,.12,0,.25,0,.37,0,2.81-.03,6.02-.21,6.09,3.68.08,3.93-3.08,3.81-5.93,3.81-19.96-.02-39.92,0-59.88,0Z"/>
      <path class="cls-1" d="M194.6,246.96c19.59,0,39.17,0,58.76,0,1,0,2.24-.34,2.94.12,1.31.86,3.28,2.26,3.2,3.3-.11,1.4-1.72,2.91-3.04,3.9-.73.55-2.17.16-3.29.16-39.3,0-78.59,0-117.89,0-.12,0-.25,0-.37,0-2.81.03-6.01.19-6.1-3.68-.09-3.94,3.08-3.82,5.92-3.81,19.96.01,39.92,0,59.88,0Z"/>
      <path class="cls-1" d="M194.59,317.32c19.46,0,38.92,0,58.38,0,1.12,0,2.48-.36,3.31.14,1.33.79,3.29,2.24,3.21,3.27-.12,1.41-1.74,2.86-3.03,3.93-.6.5-1.93.15-2.92.15-39.54,0-79.09,0-118.63,0-1,0-2.32.35-2.92-.15-1.29-1.06-2.92-2.51-3.04-3.92-.09-1.03,1.87-2.49,3.2-3.28.83-.5,2.19-.14,3.31-.14,19.71,0,39.42,0,59.13,0Z"/>
      <path class="cls-1" d="M220.43,262.62c11.34,0,22.67.02,34.01-.01,2.71,0,5.29.35,5.24,3.76-.06,3.33-2.61,3.75-5.33,3.75-22.92-.02-45.84,0-68.76-.02-3.58,0-5.64-1.8-5.09-4.36.6-2.79,2.75-3.14,5.18-3.13,11.58.04,23.17.02,34.75.02Z"/>
      <path class="cls-1" d="M219.98,129.37c-11.58,0-23.17.09-34.75-.11-1.53-.03-3.34-1.3-4.42-2.53-.51-.57.07-2.69.79-3.58.64-.79,2.17-1.2,3.31-1.21,23.42-.07,46.83-.05,70.25-.06,2.58,0,4.54.9,4.51,3.76-.03,2.83-2.02,3.73-4.58,3.73-11.71,0-23.42,0-35.13,0Z"/>
      <path class="cls-1" d="M219.67,168.39c-11.58,0-23.17,0-34.75,0-2.64,0-4.5-1.12-4.41-3.88.08-2.53,1.9-3.6,4.35-3.6.25,0,.5,0,.75,0,23.05,0,46.09,0,69.14,0,2.65,0,4.91.65,4.94,3.74.03,3.1-2.21,3.78-4.88,3.77-11.71-.03-23.42-.01-35.13-.01Z"/>
      <path class="cls-1" d="M220.42,301.65c11.34,0,22.67.02,34.01-.02,2.74,0,5.27.42,5.24,3.78-.03,3.35-2.59,3.74-5.31,3.73-22.8-.02-45.59-.03-68.39,0-2.72,0-5.36-.36-5.45-3.62-.1-3.54,2.65-3.92,5.51-3.91,11.46.05,22.92.02,34.38.02Z"/>
      <path class="cls-1" d="M146.35,270.1c-4.35,0-8.7,0-13.05,0-2.54,0-4.53-.94-4.55-3.76-.02-2.87,1.96-3.72,4.52-3.72,8.95.02,17.9.02,26.84,0,2.45,0,4.29.98,4.39,3.51.1,2.74-1.76,3.94-4.37,3.96-4.6.03-9.2,0-13.79,0Z"/>
      <path class="cls-1" d="M146.81,121.89c4.23,0,8.45.05,12.68-.02,2.66-.04,4.96.63,5.01,3.65.06,2.98-2.12,3.87-4.83,3.86-8.7-.03-17.4-.02-26.1,0-2.68,0-4.86-.81-4.8-3.86.06-3.11,2.37-3.67,4.99-3.64,4.35.05,8.7.01,13.05.01Z"/>
      <path class="cls-1" d="M146.67,168.39c-4.47,0-8.95-.01-13.42,0-2.58.01-4.52-.93-4.49-3.77.03-2.83,2.02-3.73,4.57-3.72,8.82,0,17.65.02,26.47,0,2.56,0,4.62.88,4.7,3.62.08,2.99-2.04,3.92-4.78,3.89-4.35-.05-8.7-.01-13.05-.01Z"/>
      <path class="cls-1" d="M146.98,301.65c4.23,0,8.45.04,12.68-.02,2.72-.04,4.87.85,4.84,3.83-.03,2.74-2.06,3.68-4.64,3.68-8.82-.03-17.65-.02-26.47,0-2.54,0-4.58-.82-4.63-3.66-.05-3.07,2.1-3.87,4.8-3.85,4.47.04,8.95.01,13.42.01Z"/>
      <path class="cls-2" d="M84.68,269.2c-6.1,0-12.21.05-18.31-.02-4.24-.05-5.57-1.4-5.6-5.67-.05-8.6-.06-17.19,0-25.79.03-4.18,1.44-5.55,5.69-5.56,12.08-.04,24.16-.04,36.24,0,4.42.01,5.73,1.37,5.74,5.85.03,8.47.03,16.94,0,25.41-.02,4.43-1.32,5.72-5.84,5.76-5.98.05-11.96.01-17.94.01Z"/>
      <path class="cls-2" d="M84.64,339.51c-6.1,0-12.21.04-18.31-.02-4.24-.04-5.53-1.36-5.56-5.67-.05-8.47-.04-16.94,0-25.41.02-4.49,1.36-5.89,5.74-5.91,12.08-.04,24.16-.04,36.24,0,4.38.01,5.69,1.41,5.71,5.9.03,8.35.02,16.69,0,25.04-.01,4.92-1.17,6.04-6.26,6.06-5.85.03-11.71,0-17.56,0Z"/>
      <path class="cls-2" d="M84.63,161.82c5.98,0,11.96-.03,17.93,0,4.57.03,5.88,1.28,5.9,5.68.03,8.59.04,17.19,0,25.78-.02,4.07-1.33,5.49-5.31,5.5-12.33.06-24.66.06-36.99,0-3.98-.02-5.35-1.43-5.38-5.48-.06-8.59-.06-17.19,0-25.78.03-4.41,1.37-5.68,5.92-5.7,5.98-.04,11.96,0,17.93,0Z"/>
      <path class="cls-2" d="M84.92,128.49c-6.23,0-12.46.05-18.68-.02-4.02-.05-5.42-1.43-5.45-5.43-.07-8.72-.07-17.44,0-26.16.03-4,1.43-5.41,5.45-5.43,12.33-.06,24.66-.06,36.99,0,3.79.02,5.2,1.48,5.22,5.23.06,8.84.06,17.69,0,26.53-.02,3.75-1.43,5.19-5.22,5.24-6.1.09-12.21.02-18.31.02Z"/>
    </g>
  </g>
</svg>