<?xml version="1.0" encoding="UTF-8"?>
<svg id="Layer_2" data-name="Layer 2" xmlns="http://www.w3.org/2000/svg" viewBox="0 0 384 384">
  <defs>
    <style>
      .cls-1 {
        fill: #000;
      }

      .cls-1, .cls-2 {
        stroke-width: 0px;
      }

      .cls-2 {
        fill: #fff;
      }
    </style>
  </defs>
  <g id="Layer_1-2" data-name="Layer 1">
    <g>
      <path class="cls-2" d="M0,0c128,0,256,0,384,0,0,128,0,256,0,384-128,0-256,0-384,0C0,256,0,128,0,0ZM90.9,157.42c-3.67.66-6.67.96-9.52,1.76-15.1,4.24-24.27,16.88-24.32,33.69-.08,28.44-.02,56.88-.02,85.32,0,19.71-.11,39.42.03,59.12.14,20.17,14.16,34.62,33.89,34.65,67.6.1,135.21.11,202.81-.1,4.95-.02,10.29-1.2,14.78-3.28,13.41-6.23,19.11-17.59,19.13-32.02.05-31.06.01-62.12.01-93.17,0-16.84.06-33.68-.02-50.52-.07-15.69-7.98-27.83-21.49-32.73-3.8-1.38-7.91-1.91-12.35-2.94v-3.75c0-12.72.14-25.45-.06-38.17-.1-6.34-.31-12.76-1.32-19C283.21,39.13,228.66,1.74,171.76,13.38c-45.13,9.24-78.22,47.32-80.48,93.3-.76,15.43-.29,30.92-.37,46.39,0,1.46,0,2.93,0,4.35Z"/>
      <path class="cls-1" d="M90.9,157.42c0-1.42,0-2.89,0-4.35.09-15.46-.38-30.96.37-46.39,2.26-45.97,35.36-84.06,80.48-93.3,56.89-11.65,111.45,25.74,120.7,82.89,1.01,6.24,1.22,12.66,1.32,19,.2,12.72.06,25.44.06,38.17v3.75c4.44,1.03,8.55,1.56,12.35,2.94,13.51,4.9,21.42,17.05,21.49,32.73.08,16.84.02,33.68.02,50.52,0,31.06.03,62.12-.01,93.17-.02,14.43-5.72,25.79-19.13,32.02-4.49,2.08-9.82,3.27-14.78,3.28-67.6.21-135.21.21-202.81.1-19.73-.03-33.75-14.48-33.89-34.65-.14-19.71-.03-39.41-.03-59.12,0-28.44-.05-56.88.02-85.32.05-16.81,9.21-29.45,24.32-33.69,2.85-.8,5.85-1.09,9.52-1.76ZM192.36,180.37c-32.93,0-65.86,0-98.78,0-10.39,0-13.97,3.53-13.97,13.89-.01,47.15-.01,94.29,0,141.44,0,10.07,3.74,13.77,13.79,13.77,65.98,0,131.96,0,197.94,0,10.05,0,13.79-3.71,13.79-13.77.02-47.27.02-94.54,0-141.81,0-9.87-3.72-13.51-13.61-13.51-33.05,0-66.1,0-99.16,0ZM270.92,157.64c.12-.91.29-1.62.29-2.34-.02-15.47.35-30.95-.18-46.4-1.67-48.65-47.91-84.01-95.47-73.3-37.03,8.34-61.57,38.83-62.02,77.26-.16,13.84-.04,27.69-.02,41.54,0,1.07.19,2.13.3,3.25h157.1Z"/>
      <path class="cls-2" d="M192.36,180.37c33.05,0,66.1,0,99.16,0,9.9,0,13.61,3.64,13.61,13.51.02,47.27.02,94.54,0,141.81,0,10.07-3.74,13.77-13.79,13.77-65.98,0-131.96,0-197.94,0-10.05,0-13.79-3.7-13.79-13.77-.01-47.15-.01-94.29,0-141.44,0-10.36,3.58-13.89,13.97-13.89,32.93,0,65.86,0,98.78,0ZM181.13,293.55c0,3.37-.03,6.73,0,10.1.09,7.52,4.41,12.05,11.36,11.97,6.84-.08,11.04-4.5,11.11-11.84.07-7.11.08-14.22-.02-21.32-.03-1.96.43-3.03,2.41-3.91,17.11-7.6,24.63-26.31,17.7-43.69-6.58-16.49-25.35-24.71-42.8-18.75-12.63,4.31-21.55,16.02-22.2,29.15-.74,14.91,6.3,27.15,19.25,32.94,2.39,1.07,3.44,2.2,3.24,4.88-.25,3.47-.06,6.98-.06,10.47Z"/>
      <path class="cls-2" d="M270.92,157.64H113.83c-.11-1.11-.29-2.18-.3-3.25-.02-13.85-.14-27.69.02-41.54.45-38.43,24.99-68.92,62.02-77.26,47.56-10.71,93.79,24.65,95.47,73.3.53,15.45.16,30.93.18,46.4,0,.72-.17,1.43-.29,2.34Z"/>
      <path class="cls-1" d="M181.12,293.55c0-3.49-.19-7,.06-10.47.2-2.68-.85-3.82-3.24-4.88-12.95-5.79-20-18.02-19.25-32.94.66-13.13,9.57-24.84,22.2-29.15,17.46-5.96,36.22,2.26,42.8,18.75,6.93,17.37-.59,36.09-17.7,43.69-1.98.88-2.44,1.95-2.41,3.91.09,7.11.09,14.21.02,21.32-.07,7.34-4.27,11.76-11.11,11.84-6.95.08-11.27-4.44-11.36-11.97-.04-3.37,0-6.73,0-10.1ZM192.6,259.15c6.72-.09,11.1-4.62,11-11.4-.1-6.62-4.84-11.19-11.46-11.04-6.7.15-11.09,4.74-11,11.49.09,6.7,4.63,11.04,11.45,10.95Z"/>
      <path class="cls-2" d="M192.6,259.15c-6.82.09-11.36-4.26-11.45-10.95-.09-6.75,4.3-11.34,11-11.49,6.62-.15,11.36,4.43,11.46,11.04.1,6.78-4.28,11.32-11,11.4Z"/>
    </g>
  </g>
</svg>