<?xml version="1.0" encoding="UTF-8"?>
<svg id="Layer_2" data-name="Layer 2" xmlns="http://www.w3.org/2000/svg" viewBox="0 0 384 384">
  <defs>
    <style>
      .cls-1 {
        fill: #000;
      }

      .cls-1, .cls-2 {
        stroke-width: 0px;
      }

      .cls-2 {
        fill: #fff;
      }
    </style>
  </defs>
  <g id="Layer_1-2" data-name="Layer 1">
    <g>
      <path class="cls-1" d="M384,145.96v103.3c-.24.68-.59,1.34-.7,2.04-4.02,24.61-23.14,43.4-47.91,46.71-5.86.78-11.84.66-18,.97,0,1.51,0,2.87,0,4.22,0,14.97.03,29.94,0,44.91-.05,20.62-14.48,35.12-35.06,35.13-60,.03-120,.03-180,0-20.37-.01-34.88-14.54-34.94-34.88-.04-15.22,0-30.44,0-45.65,0-1.31,0-2.61,0-4.04-3.34,0-6.08,0-8.82,0-33.38-.04-57.78-24.49-57.8-57.93-.01-28.69,0-57.38,0-86.07.01-33.72,24.33-58.08,57.97-58.11,2.82,0,5.63,0,8.65,0,0-13.98-.08-27.43.02-40.89.18-25.41,17.63-47.65,42.21-53.95C111.98,1.12,114.38.57,116.77,0c50.4,0,100.8,0,151.2,0,.43.21.84.53,1.3.61,29.28,5.23,48.08,27.57,48.1,57.19.01,11.58,0,23.17,0,34.75,0,1.3,0,2.6,0,4.02,4.1,0,7.59-.03,11.07,0,24.84.25,46.63,16.91,53.37,40.81.8,2.84,1.46,5.72,2.18,8.58ZM317.57,276.21c3.01,0,5.85,0,8.69,0,20.84-.05,35.26-14.44,35.28-35.29.03-28.81.03-57.62,0-86.43-.02-21.11-14.36-35.46-35.47-35.46-89.18-.01-178.36-.01-267.53,0-20.88,0-35.3,14.4-35.32,35.24-.03,28.94-.01,57.87,0,86.81,0,1.99.03,4,.33,5.96,2.76,18.29,18.38,32.56,43.55,28.72v-36.99c-2.5,0-4.75.11-6.97-.02-5.8-.34-10.37-4.91-10.7-10.56-.32-5.49,3.55-10.52,9.08-11.63,1.45-.29,2.98-.22,4.47-.22,86.31,0,172.62,0,258.93,0,.75,0,1.5-.02,2.24,0,6.37.26,11.19,5.11,11.18,11.24-.02,6.14-4.83,10.96-11.22,11.19-2.18.08-4.37.01-6.54.01v37.43ZM89.82,238.94c0,1.52,0,2.74,0,3.97,0,34.92,0,69.83,0,104.75,0,8.77,4.33,13.13,13.04,13.14,59.61,0,119.22,0,178.83,0,8.95,0,13.22-4.31,13.22-13.34,0-34.92,0-69.83,0-104.75,0-1.21-.1-2.42-.16-3.77H89.82ZM294.92,96.44c0-13.34.04-26.29-.01-39.24-.08-20.13-14.59-34.7-34.68-34.72-45.26-.05-90.51-.05-135.77,0-20.07.02-34.56,14.64-34.63,34.77-.04,11.97-.01,23.94,0,35.91,0,1.07.14,2.14.21,3.28h204.88Z"/>
      <path class="cls-2" d="M116.77,0c-2.39.57-4.79,1.12-7.17,1.73-24.58,6.29-42.03,28.54-42.21,53.95-.1,13.46-.02,26.91-.02,40.89-3.02,0-5.83,0-8.65,0-33.65.03-57.96,24.39-57.97,58.11,0,28.69-.01,57.38,0,86.07.01,33.44,24.42,57.89,57.8,57.93,2.74,0,5.48,0,8.82,0,0,1.43,0,2.73,0,4.04,0,15.22-.03,30.44,0,45.65.06,20.34,14.57,34.87,34.94,34.88,60,.03,120,.03,180,0,20.58,0,35.01-14.51,35.06-35.13.04-14.97,0-29.94,0-44.91,0-1.35,0-2.71,0-4.22,6.16-.31,12.14-.19,18-.97,24.77-3.31,43.89-22.11,47.91-46.71.11-.7.46-1.36.7-2.04v134.74H0C0,256,0,128,0,0,38.92,0,77.85,0,116.77,0Z"/>
      <path class="cls-2" d="M384,145.96c-.72-2.86-1.38-5.74-2.18-8.58-6.74-23.9-28.53-40.56-53.37-40.81-3.48-.04-6.97,0-11.07,0,0-1.42,0-2.72,0-4.02,0-11.58,0-23.17,0-34.75-.03-29.62-18.82-51.96-48.1-57.19-.45-.08-.87-.4-1.3-.61,38.67,0,77.35,0,116.02,0v145.96Z"/>
      <path class="cls-2" d="M317.57,276.21v-37.43c2.16,0,4.35.06,6.54-.01,6.4-.23,11.21-5.05,11.22-11.19.01-6.13-4.81-10.98-11.18-11.24-.75-.03-1.5,0-2.24,0-86.31,0-172.62,0-258.93,0-1.49,0-3.02-.07-4.47.22-5.53,1.11-9.4,6.14-9.08,11.63.33,5.65,4.9,10.22,10.7,10.56,2.23.13,4.47.02,6.97.02,0,12.46,0,24.72,0,36.99-25.16,3.84-40.79-10.43-43.55-28.72-.3-1.96-.33-3.98-.33-5.96-.02-28.94-.03-57.87,0-86.81.02-20.84,14.44-35.23,35.32-35.24,89.18-.02,178.36-.01,267.53,0,21.11,0,35.45,14.35,35.47,35.46.03,28.81.03,57.62,0,86.43-.02,20.85-14.44,35.23-35.28,35.29-2.84,0-5.67,0-8.69,0ZM78.22,166.92c5.73,0,11.45.02,17.18,0,7.27-.04,12.32-4.6,12.38-11.13.06-6.54-5-11.28-12.19-11.31-11.33-.04-22.65-.04-33.98,0-7.17.02-12.25,4.79-12.19,11.31.06,6.52,5.12,11.09,12.38,11.13,5.48.03,10.95,0,16.43,0Z"/>
      <path class="cls-2" d="M89.82,238.94h204.93c.06,1.35.16,2.56.16,3.77,0,34.92.01,69.83,0,104.75,0,9.02-4.27,13.33-13.22,13.34-59.61,0-119.22,0-178.83,0-8.71,0-13.04-4.36-13.04-13.14,0-34.92,0-69.83,0-104.75,0-1.22,0-2.45,0-3.97ZM192.37,264.23c-9.59,0-19.18-.02-28.77,0-7.26.02-12.33,4.61-12.38,11.13-.05,6.53,5.02,11.3,12.2,11.31,19.3.03,38.61.03,57.91,0,7.2-.01,12.25-4.77,12.2-11.32-.06-6.53-5.11-11.1-12.39-11.12-9.59-.03-19.18,0-28.77,0ZM192.37,312.14c-9.59,0-19.18-.02-28.77,0-7.26.02-12.33,4.61-12.39,11.12-.05,6.53,5.02,11.3,12.2,11.31,19.3.03,38.61.03,57.91,0,7.2-.01,12.26-4.76,12.2-11.31-.05-6.53-5.11-11.1-12.39-11.13-9.59-.03-19.18,0-28.77,0Z"/>
      <path class="cls-2" d="M294.92,96.44H90.05c-.08-1.14-.21-2.21-.21-3.28-.01-11.97-.04-23.94,0-35.91.07-20.14,14.56-34.75,34.63-34.77,45.26-.05,90.51-.05,135.77,0,20.09.02,34.6,14.6,34.68,34.72.05,12.95.01,25.9.01,39.24Z"/>
      <path class="cls-1" d="M78.22,166.92c-5.48,0-10.95.02-16.43,0-7.26-.04-12.32-4.61-12.38-11.13-.06-6.52,5.02-11.28,12.19-11.31,11.33-.04,22.65-.04,33.98,0,7.19.02,12.25,4.77,12.19,11.31-.06,6.54-5.1,11.09-12.38,11.13-5.73.03-11.45,0-17.18,0Z"/>
      <path class="cls-1" d="M192.37,264.23c9.59,0,19.18-.02,28.77,0,7.28.02,12.34,4.59,12.39,11.12.06,6.55-5,11.3-12.2,11.32-19.3.03-38.61.03-57.91,0-7.18-.01-12.25-4.77-12.2-11.31.05-6.51,5.12-11.11,12.38-11.13,9.59-.03,19.18,0,28.77,0Z"/>
      <path class="cls-1" d="M192.37,312.14c9.59,0,19.18-.02,28.77,0,7.28.02,12.33,4.59,12.39,11.13.05,6.55-5,11.3-12.2,11.31-19.3.03-38.61.03-57.91,0-7.18-.01-12.25-4.78-12.2-11.31.05-6.51,5.13-11.1,12.39-11.12,9.59-.03,19.18,0,28.77,0Z"/>
    </g>
  </g>
</svg>