<?xml version="1.0" encoding="UTF-8"?>
<svg id="Layer_2" data-name="Layer 2" xmlns="http://www.w3.org/2000/svg" viewBox="0 0 384 384">
  <defs>
    <style>
      .cls-1 {
        fill: #000;
      }

      .cls-1, .cls-2 {
        stroke-width: 0px;
      }

      .cls-2 {
        fill: #fff;
      }
    </style>
  </defs>
  <g id="Layer_1-2" data-name="Layer 1">
    <g>
      <path class="cls-1" d="M384,281.45v16.47c-.47,2.56-.99,5.11-1.41,7.67-11.38,69.38-94.82,101.44-149.94,57.62-13.79-10.97-23.76-24.71-30.12-41.33h-4.51c-54.01,0-108.01.02-162.02,0-20.82,0-35.24-14.46-35.24-35.32-.02-73.71-.02-147.43.04-221.14,0-3.71.28-7.52,1.13-11.11,4.4-18.72,20.51-31.53,39.76-31.81,7.2-.1,14.4-.02,21.97-.02.14-8.65-2.2-18.04,8.21-22.46h5.99c10.62,4.41,7.81,14.13,8.37,22.26h40.42c0-4.4-.3-8.63.08-12.8.44-4.83,4.12-7.34,8.03-9.46h5.99c10.62,4.41,7.81,14.13,8.37,22.26h40.24c.37-8.41-2.2-17.87,8.28-22.26h5.99c10.62,4.41,7.81,14.13,8.37,22.26h40.32c.12-8.47-2.2-17.83,8.2-22.26h5.99c10.5,4.39,7.9,13.88,8.3,22.46,6.86,0,13.44-.13,20.02.05,3.72.1,7.51.31,11.11,1.18,19.17,4.6,31.65,20.77,31.67,40.99.05,46.9.04,93.81-.03,140.71,0,2.51.71,3.96,2.9,5.37,19.16,12.33,32.46,29.29,39.16,51.12,1.96,6.37,2.95,13.04,4.39,19.57ZM197.16,299.42c-2.06-32.8,8.25-60.13,33.03-81.08,24.71-20.9,53.38-26.47,84.7-19.15v-79.12H23.2v4.01c0,53.89,0,107.78,0,161.68,0,9.52,4.14,13.67,13.64,13.67,52.02,0,104.04,0,156.06,0h4.25ZM290.41,218.58c-39.22,0-71.13,31.99-71.08,71.22.05,39.05,31.91,70.93,70.94,70.99,39.24.06,71.24-31.84,71.27-71.04.03-39.23-31.9-71.18-71.13-71.17ZM23.26,97.05h291.81c0-11.84.27-23.43-.09-35.01-.26-8.45-6.9-15.89-15.48-16.72-8.1-.78-16.34-.17-24.79-.17,0,3.43.02,6.65,0,9.87-.06,7.26-4.68,12.33-11.22,12.33-6.54,0-11.17-5.07-11.22-12.33-.02-3.31,0-6.62,0-9.93h-40.42c0,3.63.05,7.09-.01,10.55-.12,6.7-4.82,11.63-11.08,11.71-6.41.08-11.25-4.93-11.35-11.82-.05-3.45,0-6.9,0-10.36h-40.42c0,3.25,0,6.23,0,9.21-.02,7.88-4.54,13.04-11.34,12.97-6.66-.07-11.09-5.16-11.12-12.81-.01-3.18,0-6.36,0-9.41h-40.42c0,3.43.02,6.65,0,9.87-.06,7.27-4.66,12.34-11.2,12.35-6.55.02-11.19-5.05-11.25-12.3-.03-3.31,0-6.63,0-10.14-1.88,0-3.23,0-4.59,0-6.24.02-12.49-.23-18.7.12-8.99.51-16.68,8-16.98,16.99-.38,11.57-.09,23.17-.09,35.03Z"/>
      <path class="cls-2" d="M71.86,0c-10.41,4.42-8.07,13.81-8.21,22.46-7.57,0-14.77-.09-21.97.02-19.25.28-35.36,13.09-39.76,31.81-.85,3.6-1.12,7.4-1.13,11.11-.06,73.71-.06,147.43-.04,221.14,0,20.86,14.42,35.31,35.24,35.32,54.01.02,108.01,0,162.02,0h4.51c6.36,16.62,16.33,30.37,30.12,41.33,55.12,43.82,138.56,11.76,149.94-57.62.42-2.57.94-5.11,1.41-7.67v86.08H0C0,256,0,128,0,0c23.95,0,47.91,0,71.86,0Z"/>
      <path class="cls-2" d="M384,281.45c-1.44-6.53-2.44-13.2-4.39-19.57-6.7-21.84-20-38.8-39.16-51.12-2.2-1.41-2.91-2.86-2.9-5.37.07-46.9.09-93.81.03-140.71-.02-20.22-12.51-36.39-31.67-40.99-3.59-.86-7.39-1.07-11.11-1.18-6.57-.18-13.15-.05-20.02-.05-.4-8.58,2.2-18.06-8.3-22.46h117.52v281.45Z"/>
      <path class="cls-2" d="M134.74,0c-3.91,2.12-7.59,4.63-8.03,9.46-.38,4.17-.08,8.4-.08,12.8h-40.42c-.56-8.13,2.25-17.85-8.37-22.26h56.89Z"/>
      <path class="cls-2" d="M197.61,0c-10.48,4.39-7.92,13.85-8.28,22.26h-40.24c-.56-8.13,2.25-17.85-8.37-22.26h56.89Z"/>
      <path class="cls-2" d="M260.49,0c-10.4,4.42-8.08,13.79-8.2,22.26h-40.32c-.56-8.13,2.25-17.85-8.37-22.26h56.89Z"/>
      <path class="cls-2" d="M197.16,299.42h-4.25c-52.02,0-104.04,0-156.06,0-9.5,0-13.64-4.15-13.64-13.67,0-53.89,0-107.78,0-161.68v-4.01h291.68v79.12c-31.32-7.31-59.99-1.75-84.7,19.15-24.78,20.95-35.09,48.29-33.03,81.08ZM69.16,220.81c3.23,0,6.47.11,9.7-.02,6.29-.26,11.06-5.3,10.95-11.39-.11-5.96-4.83-10.83-10.98-10.98-6.34-.16-12.69-.15-19.03,0-6.32.13-11.15,5.12-11.14,11.2,0,6.09,4.83,10.98,11.16,11.2,3.11.11,6.22.02,9.33.01ZM135.82,220.8c3.23,0,6.47.11,9.7-.02,6.12-.26,10.83-5.12,10.91-11.06.07-6.1-4.72-11.16-11.02-11.31-6.34-.15-12.69-.15-19.03,0-6.3.14-11.13,5.16-11.09,11.25.03,6.09,4.86,10.95,11.21,11.15,3.11.1,6.22.02,9.33,0ZM202.45,220.8c3.23,0,6.47.12,9.7-.02,6.12-.27,10.83-5.13,10.9-11.07.07-6.1-4.73-11.15-11.03-11.3-6.34-.15-12.69-.15-19.03,0-6.3.14-11.12,5.17-11.08,11.26.04,6.09,4.87,10.94,11.22,11.14,3.11.1,6.22.02,9.33,0ZM136.05,147.9c-3.24,0-6.49-.12-9.73.02-6.29.27-10.93,4.95-11.04,10.95-.1,5.83,4.19,10.9,10.29,11.23,6.84.37,13.72.37,20.56,0,6.11-.33,10.39-5.37,10.3-11.22-.1-5.99-4.74-10.68-11.02-10.96-3.11-.14-6.24-.02-9.35-.02ZM202.51,147.91c-3.24,0-6.49-.13-9.73.03-6.09.3-10.66,4.89-10.87,10.73-.21,5.82,4.05,11.06,10.08,11.41,6.96.4,13.97.4,20.93,0,6.06-.34,10.31-5.52,10.13-11.36-.19-5.85-4.73-10.47-10.81-10.78-3.23-.16-6.48-.03-9.73-.03ZM269.41,147.89s0,.01,0,.02c-3.37,0-6.74-.14-10.1.03-6.06.31-10.61,4.97-10.78,10.81-.16,5.83,4.11,10.98,10.17,11.33,6.83.39,13.72.39,20.56.03,6.28-.33,10.65-5.52,10.4-11.49-.24-5.99-4.92-10.48-11.28-10.71-2.99-.11-5.99-.02-8.98-.02ZM69.5,248.95c-3.24,0-6.49-.11-9.73.02-6.29.26-10.96,4.9-11.1,10.88-.14,5.97,4.28,11.02,10.59,11.34,6.72.33,13.48.34,20.19-.03,6.12-.33,10.43-5.32,10.37-11.16-.06-5.99-4.7-10.73-10.96-11.02-3.11-.15-6.24-.03-9.35-.03ZM136.22,248.96c-3.37,0-6.74-.14-10.1.03-6.08.3-10.64,4.92-10.83,10.76-.19,5.83,4.07,11.03,10.11,11.37,6.96.39,13.97.39,20.93,0,6.05-.34,10.3-5.55,10.09-11.39-.21-5.85-4.76-10.44-10.85-10.74-3.11-.16-6.24-.03-9.35-.03Z"/>
      <path class="cls-2" d="M290.41,218.58c39.23,0,71.16,31.94,71.13,71.17-.03,39.2-32.03,71.1-71.27,71.04-39.03-.06-70.89-31.94-70.94-70.99-.05-39.23,31.86-71.21,71.08-71.22ZM301.66,278.46c0-8.87.05-17.21-.02-25.55-.05-6.91-4.88-11.91-11.29-11.86-6.4.05-11.1,5.06-11.13,12.03-.05,11.85-.04,23.69,0,35.54.02,7.72,4.61,12.27,12.37,12.3,11.6.03,23.2.02,34.79,0,7.59-.01,12.69-4.55,12.69-11.23,0-6.67-5.11-11.2-12.69-11.22-8.08-.02-16.17,0-24.72,0Z"/>
      <path class="cls-2" d="M23.26,97.05c0-11.86-.29-23.46.09-35.03.3-8.98,7.99-16.48,16.98-16.99,6.22-.35,12.47-.1,18.7-.12,1.36,0,2.71,0,4.59,0,0,3.51-.02,6.83,0,10.14.06,7.25,4.7,12.32,11.25,12.3,6.54-.02,11.14-5.08,11.2-12.35.03-3.22,0-6.44,0-9.87h40.42c0,3.05,0,6.23,0,9.41.03,7.64,4.46,12.74,11.12,12.81,6.8.07,11.31-5.09,11.34-12.97,0-2.98,0-5.96,0-9.21h40.42c0,3.46-.04,6.91,0,10.36.1,6.89,4.94,11.9,11.35,11.82,6.26-.08,10.96-5.01,11.08-11.71.06-3.46.01-6.92.01-10.55h40.42c0,3.31-.02,6.62,0,9.93.05,7.26,4.68,12.33,11.22,12.33,6.54,0,11.17-5.07,11.22-12.33.03-3.22,0-6.44,0-9.87,8.45,0,16.69-.62,24.79.17,8.58.83,15.22,8.27,15.48,16.72.36,11.57.09,23.17.09,35.01H23.26Z"/>
      <path class="cls-1" d="M69.16,220.81c-3.11,0-6.22.09-9.33-.02-6.33-.21-11.15-5.1-11.16-11.2,0-6.09,4.82-11.07,11.14-11.2,6.34-.14,12.69-.15,19.03,0,6.15.15,10.87,5.03,10.98,10.98.11,6.09-4.67,11.13-10.95,11.39-3.23.13-6.47.02-9.7.03Z"/>
      <path class="cls-1" d="M135.82,220.81c-3.11,0-6.22.09-9.33-.01-6.34-.2-11.17-5.06-11.21-11.15-.03-6.09,4.79-11.1,11.09-11.25,6.34-.14,12.69-.15,19.03,0,6.3.15,11.1,5.21,11.02,11.31-.07,5.95-4.78,10.8-10.91,11.06-3.23.14-6.47.02-9.7.03Z"/>
      <path class="cls-1" d="M202.45,220.81c-3.11,0-6.22.09-9.33-.01-6.35-.2-11.18-5.05-11.22-11.14-.04-6.08,4.78-11.11,11.08-11.26,6.34-.14,12.69-.15,19.03,0,6.31.15,11.1,5.2,11.03,11.3-.07,5.95-4.77,10.81-10.9,11.07-3.23.14-6.47.02-9.7.03Z"/>
      <path class="cls-1" d="M136.05,147.9c3.12,0,6.24-.11,9.35.02,6.28.28,10.93,4.97,11.02,10.96.1,5.84-4.19,10.89-10.3,11.22-6.84.37-13.72.37-20.56,0-6.09-.33-10.39-5.39-10.29-11.23.1-5.99,4.75-10.68,11.04-10.95,3.24-.14,6.49-.02,9.73-.02Z"/>
      <path class="cls-1" d="M202.51,147.91c3.24,0,6.49-.13,9.73.03,6.08.31,10.63,4.93,10.81,10.78.19,5.84-4.07,11.02-10.13,11.36-6.96.39-13.97.39-20.93,0-6.03-.35-10.29-5.58-10.08-11.41.21-5.84,4.78-10.43,10.87-10.73,3.24-.16,6.48-.03,9.73-.03Z"/>
      <path class="cls-1" d="M269.41,147.89c2.99,0,5.99-.09,8.98.02,6.36.23,11.03,4.72,11.28,10.71.24,5.97-4.13,11.16-10.4,11.49-6.84.36-13.72.36-20.56-.03-6.06-.35-10.33-5.5-10.17-11.33.16-5.84,4.71-10.5,10.78-10.81,3.36-.17,6.73-.03,10.1-.03,0,0,0-.01,0-.02Z"/>
      <path class="cls-1" d="M69.5,248.95c3.12,0,6.24-.12,9.35.03,6.26.29,10.9,5.03,10.96,11.02.06,5.84-4.24,10.83-10.37,11.16-6.71.36-13.47.36-20.19.03-6.32-.31-10.73-5.37-10.59-11.34.14-5.98,4.81-10.63,11.1-10.88,3.24-.13,6.49-.02,9.73-.02Z"/>
      <path class="cls-1" d="M136.22,248.96c3.12,0,6.24-.13,9.35.03,6.09.31,10.64,4.89,10.85,10.74.21,5.84-4.04,11.05-10.09,11.39-6.96.4-13.97.39-20.93,0-6.04-.34-10.31-5.55-10.11-11.37.19-5.84,4.75-10.46,10.83-10.76,3.36-.17,6.73-.03,10.1-.03Z"/>
      <path class="cls-1" d="M301.66,278.46c8.55,0,16.63-.01,24.72,0,7.59.02,12.7,4.55,12.69,11.22,0,6.68-5.1,11.21-12.69,11.23-11.6.02-23.2.03-34.79,0-7.76-.02-12.35-4.57-12.37-12.3-.04-11.85-.04-23.69,0-35.54.03-6.97,4.73-11.98,11.13-12.03,6.41-.05,11.24,4.95,11.29,11.86.07,8.34.02,16.68.02,25.55Z"/>
    </g>
  </g>
</svg>