<?xml version="1.0" encoding="UTF-8"?>
<svg id="Layer_2" data-name="Layer 2" xmlns="http://www.w3.org/2000/svg" viewBox="0 0 409.6 409.6">
  <defs>
    <style>
      .cls-1 {
        fill: #000;
      }

      .cls-1, .cls-2 {
        stroke-width: 0px;
      }

      .cls-2 {
        fill: #fff;
      }
    </style>
  </defs>
  <g id="Layer_1-2" data-name="Layer 1">
    <g>
      <path class="cls-2" d="M20.76,409.6H0c0-136.5,0-273.01,0-409.6h409.6v129.29c-.28-.84-.63-1.67-.84-2.53-2.5-10.27-8.22-18.15-17.76-22.78-17.03-8.26-35.09-2.27-45.01,14.88-32.72,56.6-65.4,113.23-97.98,169.91-1.53,2.67-2.4,5.91-2.8,8.99-1.42,10.81-2.51,21.65-3.71,32.49-.99,8.99-2.07,17.96-2.87,26.97-.44,4.93,2.18,8.86,6.43,8.94,2.65.05,5.74-1.15,7.95-2.74,15.64-11.27,31.17-22.7,46.57-34.29,2.67-2.01,5.11-4.72,6.79-7.61,25.95-44.7,51.94-89.39,77.51-134.31,9.02-15.85,20-30.7,25.73-48.32v270.73h-90.22c.33-.21.64-.49,1-.61,13.29-4.22,18.95-11.95,18.96-25.96.01-13.31,0-26.62,0-39.93,0-5.06.07-10.12-.02-15.17-.1-5.47-3.39-9.1-8.04-9.04-4.67.06-7.76,3.65-7.9,9.19-.02.93,0,1.86,0,2.79,0,17.3,0,34.6,0,51.9,0,8.15-2.65,10.83-10.73,10.83-95,0-190.01,0-285.01,0-8.17,0-10.86-2.65-10.86-10.71,0-118.45,0-236.89,0-355.34,0-8.3,2.64-10.89,11.08-10.89,94.87,0,189.74,0,284.61,0,8.33,0,10.91,2.62,10.91,11.06,0,26.75,0,53.5,0,80.25,0,1.33-.06,2.67.1,3.99.53,4.39,3.91,7.51,7.96,7.46,4.08-.04,7.33-3.17,7.83-7.61.12-1.05.07-2.13.07-3.19,0-27.15.01-54.3,0-81.45,0-16.69-9.84-26.48-26.59-26.48-95.14,0-190.27,0-285.41,0C10.63.72.81,10.56.8,27.27c-.01,23.42,0,46.85,0,70.27,0,95.16.02,190.31-.04,285.47,0,7.37,1.42,14.34,7.05,19.22,3.68,3.19,8.59,4.96,12.95,7.37ZM170.01,43.85c-40.34.05-73.41,33.12-73.39,73.41.02,40.39,32.94,73.4,73.31,73.5,40.47.1,73.69-33.14,73.58-73.62-.11-40.37-33.18-73.35-73.5-73.3ZM156.5,232.31c18.1,0,36.19,0,54.29,0,6.47,0,10.32-3.01,10.32-7.99,0-4.97-3.85-7.94-10.33-7.98-.27,0-.53,0-.8,0-35.66,0-71.32,0-106.97,0-1.33,0-2.68-.05-3.98.14-4.17.62-7.14,3.95-7.14,7.84,0,3.9,2.97,7.22,7.15,7.84,1.31.19,2.65.14,3.98.14,17.83,0,35.66,0,53.49,0ZM156.5,277.03c18.1,0,36.19,0,54.29,0,6.47,0,10.32-3.01,10.32-7.99,0-4.97-3.85-7.94-10.33-7.98-.27,0-.53,0-.8,0-35.66,0-71.32,0-106.97,0-1.33,0-2.68-.05-3.98.14-4.17.62-7.14,3.95-7.14,7.85,0,3.9,2.97,7.22,7.15,7.84,1.31.19,2.65.14,3.98.14,17.83,0,35.66,0,53.49,0ZM156.53,305.78c-17.96,0-35.92,0-53.89.02-1.58,0-3.22.04-4.74.41-3.59.88-6,4.03-6.02,7.52-.02,3.48,2.39,6.67,5.95,7.57,1.52.38,3.16.43,4.74.43,35.92.02,71.85.02,107.77,0,1.46,0,2.95,0,4.36-.3,3.77-.8,6.38-4.01,6.39-7.64.02-3.62-2.58-6.87-6.33-7.69-1.41-.31-2.9-.31-4.36-.32-17.96-.02-35.92-.01-53.89-.01ZM191.29,366.47c6.78,0,13.57.05,20.35-.01,5.77-.05,9.5-3.29,9.45-8.04-.05-4.74-3.77-7.89-9.59-7.9-13.3-.04-26.61-.05-39.91,0-5.77.02-9.51,3.28-9.46,8.04.05,4.74,3.78,7.86,9.59,7.91,6.52.05,13.04.01,19.56.01ZM65.56,216.4c-4.18.09-7.87,3.93-7.77,8.07.1,4.17,3.94,7.88,8.07,7.79,4.25-.1,7.76-3.79,7.69-8.08-.07-4.26-3.77-7.87-7.98-7.77ZM65.76,276.97c4.25-.04,7.81-3.68,7.78-7.98-.03-4.28-3.65-7.9-7.89-7.87-4.16.03-7.9,3.83-7.87,7.98.04,4.17,3.83,7.91,7.97,7.88ZM73.54,313.72c-.02-4.29-3.64-7.91-7.87-7.88-4.16.03-7.91,3.81-7.88,7.97.03,4.17,3.81,7.92,7.96,7.89,4.26-.03,7.81-3.67,7.79-7.97Z"/>
      <path class="cls-1" d="M20.76,409.6c-4.36-2.41-9.27-4.18-12.95-7.37-5.63-4.88-7.05-11.85-7.05-19.22.05-95.16.04-190.31.04-285.47,0-23.42-.01-46.85,0-70.27C.81,10.56,10.63.72,27.33.71c95.14,0,190.27,0,285.41,0,16.75,0,26.58,9.79,26.59,26.48.02,27.15,0,54.3,0,81.45,0,1.06.05,2.14-.07,3.19-.5,4.43-3.76,7.56-7.83,7.61-4.05.04-7.43-3.08-7.96-7.46-.16-1.31-.1-2.66-.1-3.99,0-26.75,0-53.5,0-80.25,0-8.44-2.58-11.06-10.91-11.06-94.87,0-189.74,0-284.61,0-8.44,0-11.08,2.59-11.08,10.89,0,118.45,0,236.89,0,355.34,0,8.06,2.69,10.71,10.86,10.71,95,0,190.01,0,285.01,0,8.08,0,10.72-2.68,10.73-10.83,0-17.3,0-34.6,0-51.9,0-.93-.02-1.86,0-2.79.14-5.54,3.24-9.13,7.9-9.19,4.65-.06,7.94,3.56,8.04,9.04.09,5.06.02,10.11.02,15.17,0,13.31,0,26.62,0,39.93-.01,14.02-5.67,21.75-18.96,25.96-.36.11-.67.4-1,.61H20.76Z"/>
      <path class="cls-1" d="M409.6,138.87c-5.73,17.62-16.71,32.47-25.73,48.32-25.57,44.92-51.55,89.61-77.51,134.31-1.68,2.89-4.11,5.6-6.79,7.61-15.4,11.59-30.93,23.03-46.57,34.29-2.21,1.59-5.3,2.79-7.95,2.74-4.25-.08-6.87-4.01-6.43-8.94.8-9,1.88-17.98,2.87-26.97,1.19-10.83,2.29-21.68,3.71-32.49.4-3.08,1.27-6.33,2.8-8.99,32.58-56.68,65.26-113.31,97.98-169.91,9.91-17.14,27.97-23.14,45.01-14.88,9.55,4.63,15.26,12.51,17.76,22.78.21.86.56,1.69.84,2.53v9.58ZM294.79,309.78c26.96-46.71,53.73-93.1,80.62-139.68-10.34-5.97-20.27-11.7-30.42-17.56-26.98,46.72-53.71,93.03-80.63,139.65,10.14,5.86,20,11.56,30.42,17.59ZM383.45,156.28c3.03-5.4,6.03-10.11,8.43-15.12,3.97-8.27.82-17.89-7-22.45-7.97-4.65-17.98-2.49-23.22,5.3-3.09,4.61-5.71,9.54-8.72,14.64,10.15,5.87,20.1,11.62,30.5,17.63ZM256.34,341.25c9.32-6.88,17.88-13.19,26.78-19.76-7.92-4.57-15.21-8.77-23.07-13.31-1.26,11.19-2.44,21.68-3.72,33.06Z"/>
      <path class="cls-1" d="M170.01,43.85c40.32-.05,73.39,32.93,73.5,73.3.11,40.48-33.11,73.72-73.58,73.62-40.37-.1-73.29-33.11-73.31-73.5-.02-40.29,33.05-73.37,73.39-73.41ZM124.12,150.98c5.98-8.39,13.63-14.78,22.85-19.13-5.73-12-6.77-17.81-5.07-27.89,2.28-13.56,14.13-23.57,28.03-23.68,13.91-.11,26.19,10.09,28.32,23.79,1.5,9.68.85,19.08-5.45,27.66,9.7,4.46,17.27,10.93,23.27,19.3,15.98-20.17,16.33-54.09-6.78-75.62-22.66-21.11-57.13-20.76-79.36.89-22.62,22.01-21.29,55.56-5.81,74.7ZM135.48,162.93c22.04,16.63,50.54,14.71,69.09-.1-7.81-12.74-19.14-19.7-34.06-19.85-15.25-.15-26.88,6.78-35.03,19.95ZM182.94,111.59s-.09,0-.13,0c0-1.06.06-2.13,0-3.18-.42-6.54-5.24-11.55-11.59-12.07-6.51-.53-12.28,3.37-13.43,9.84-.64,3.57-.59,7.46.1,11.03,1.15,5.96,6.55,9.79,12.45,9.68,5.84-.12,10.96-4.29,12.2-10.14.35-1.67.29-3.43.42-5.14Z"/>
      <path class="cls-1" d="M156.5,232.31c-17.83,0-35.66,0-53.49,0-1.33,0-2.68.06-3.98-.14-4.17-.62-7.14-3.94-7.15-7.84,0-3.9,2.97-7.22,7.14-7.84,1.31-.2,2.65-.14,3.98-.14,35.66,0,71.32,0,106.97,0,.27,0,.53,0,.8,0,6.48.04,10.32,3.01,10.33,7.98,0,4.97-3.85,7.98-10.32,7.99-18.1.01-36.19,0-54.29,0Z"/>
      <path class="cls-1" d="M156.5,277.03c-17.83,0-35.66,0-53.49,0-1.33,0-2.68.06-3.98-.14-4.17-.62-7.14-3.94-7.15-7.84,0-3.9,2.97-7.22,7.14-7.85,1.31-.2,2.65-.14,3.98-.14,35.66,0,71.32,0,106.97,0,.27,0,.53,0,.8,0,6.48.04,10.32,3.01,10.33,7.98,0,4.97-3.85,7.98-10.32,7.99-18.1.01-36.19,0-54.29,0Z"/>
      <path class="cls-1" d="M156.53,305.78c17.96,0,35.92,0,53.89.01,1.46,0,2.95,0,4.36.32,3.75.82,6.35,4.07,6.33,7.69-.02,3.63-2.62,6.85-6.39,7.64-1.41.3-2.91.3-4.36.3-35.92.01-71.85.02-107.77,0-1.58,0-3.22-.05-4.74-.43-3.57-.9-5.97-4.09-5.95-7.57.02-3.49,2.43-6.65,6.02-7.52,1.52-.37,3.16-.41,4.74-.41,17.96-.03,35.92-.02,53.89-.02Z"/>
      <path class="cls-1" d="M191.29,366.47c-6.52,0-13.04.04-19.56-.01-5.82-.04-9.54-3.16-9.59-7.91-.05-4.75,3.69-8.01,9.46-8.04,13.3-.05,26.61-.05,39.91,0,5.82.02,9.54,3.16,9.59,7.9.05,4.75-3.69,7.99-9.45,8.04-6.78.06-13.57.01-20.35.01Z"/>
      <path class="cls-1" d="M65.56,216.4c4.21-.09,7.91,3.51,7.98,7.77.07,4.29-3.44,7.98-7.69,8.08-4.13.1-7.97-3.61-8.07-7.79-.1-4.14,3.6-7.97,7.77-8.07Z"/>
      <path class="cls-1" d="M65.76,276.97c-4.15.04-7.94-3.71-7.97-7.88-.04-4.15,3.71-7.95,7.87-7.98,4.23-.03,7.86,3.59,7.89,7.87.03,4.3-3.53,7.95-7.78,7.98Z"/>
      <path class="cls-1" d="M73.54,313.72c.02,4.3-3.54,7.94-7.79,7.97-4.15.03-7.93-3.72-7.96-7.89-.03-4.15,3.72-7.94,7.88-7.97,4.24-.03,7.85,3.6,7.87,7.88Z"/>
      <path class="cls-2" d="M294.79,309.78c-10.43-6.03-20.29-11.73-30.42-17.59,26.91-46.62,53.65-92.93,80.63-139.65,10.14,5.85,20.08,11.59,30.42,17.56-26.88,46.58-53.66,92.97-80.62,139.68Z"/>
      <path class="cls-2" d="M383.45,156.28c-10.4-6.01-20.35-11.76-30.5-17.63,3.01-5.1,5.62-10.03,8.72-14.64,5.23-7.79,15.25-9.95,23.22-5.3,7.81,4.56,10.97,14.17,7,22.45-2.4,5-5.39,9.72-8.43,15.12Z"/>
      <path class="cls-2" d="M256.34,341.25c1.28-11.38,2.46-21.87,3.72-33.06,7.86,4.53,15.14,8.74,23.07,13.31-8.91,6.57-17.46,12.88-26.78,19.76Z"/>
      <path class="cls-2" d="M124.12,150.98c-15.48-19.14-16.81-52.68,5.81-74.7,22.23-21.64,56.7-22,79.36-.89,23.11,21.53,22.76,55.45,6.78,75.62-6-8.37-13.57-14.84-23.27-19.3,6.3-8.58,6.95-17.98,5.45-27.66-2.12-13.7-14.41-23.9-28.32-23.79-13.9.11-25.74,10.12-28.03,23.68-1.7,10.08-.66,15.89,5.07,27.89-9.22,4.36-16.87,10.74-22.85,19.13Z"/>
      <path class="cls-2" d="M135.48,162.93c8.16-13.17,19.78-20.1,35.03-19.95,14.91.15,26.25,7.11,34.06,19.85-18.55,14.81-47.05,16.73-69.09.1Z"/>
      <path class="cls-2" d="M182.94,111.59c-.13,1.72-.07,3.47-.42,5.14-1.24,5.84-6.35,10.02-12.2,10.14-5.9.12-11.29-3.72-12.45-9.68-.69-3.56-.73-7.46-.1-11.03,1.16-6.46,6.93-10.37,13.43-9.84,6.35.52,11.17,5.53,11.59,12.07.07,1.06,0,2.12,0,3.18.04,0,.09,0,.13,0Z"/>
    </g>
  </g>
</svg>